<?xml version="1.0" encoding="UTF-8"?>
<svg id="Layer_1" data-name="Layer 1" xmlns="http://www.w3.org/2000/svg" xmlns:xlink="http://www.w3.org/1999/xlink" viewBox="0 0 756.49 279.38">
  <defs>
    <style>
      .cls-1 {
        fill: url(#linear-gradient);
      }

      .cls-2, .cls-3 {
        fill: #bdccd4;
      }

      .cls-4 {
        fill: url(#linear-gradient-8);
      }

      .cls-5 {
        fill: url(#linear-gradient-9);
      }

      .cls-6 {
        fill: url(#linear-gradient-3);
      }

      .cls-7 {
        fill: url(#linear-gradient-4);
      }

      .cls-8 {
        fill: url(#linear-gradient-2);
      }

      .cls-9 {
        fill: url(#linear-gradient-6);
      }

      .cls-10 {
        fill: url(#linear-gradient-7);
      }

      .cls-11 {
        fill: url(#linear-gradient-5);
      }

      .cls-3 {
        fill-rule: evenodd;
      }

      .cls-12 {
        fill: url(#linear-gradient-14);
      }

      .cls-13 {
        fill: url(#linear-gradient-18);
      }

      .cls-14 {
        fill: url(#linear-gradient-15);
      }

      .cls-15 {
        fill: url(#linear-gradient-16);
      }

      .cls-16 {
        fill: url(#linear-gradient-17);
      }

      .cls-17 {
        fill: url(#linear-gradient-13);
      }

      .cls-18 {
        fill: url(#linear-gradient-12);
      }

      .cls-19 {
        fill: url(#linear-gradient-10);
      }

      .cls-20 {
        fill: url(#linear-gradient-11);
      }
    </style>
    <linearGradient id="linear-gradient" x1="-52.1" y1="134.08" x2="-52.1" y2="278.16" gradientTransform="translate(293.76) skewX(-13.07)" gradientUnits="userSpaceOnUse">
      <stop offset="0" stop-color="#ff8b19"/>
      <stop offset="1" stop-color="#f05"/>
    </linearGradient>
    <linearGradient id="linear-gradient-2" x1="-52.1" y1="132.85" x2="-52.1" y2="279.38" gradientTransform="translate(293.76) skewX(-13.07)" gradientUnits="userSpaceOnUse">
      <stop offset="0" stop-color="#ffb219"/>
      <stop offset="1" stop-color="red"/>
    </linearGradient>
    <linearGradient id="linear-gradient-3" x1="262.29" y1="65.09" x2="262.29" y2="201.78" xlink:href="#linear-gradient"/>
    <linearGradient id="linear-gradient-4" x1="262.29" y1="63.87" x2="262.29" y2="203" xlink:href="#linear-gradient-2"/>
    <linearGradient id="linear-gradient-5" x1="112.52" y1="95.44" x2="112.52" y2="227.75" xlink:href="#linear-gradient"/>
    <linearGradient id="linear-gradient-6" x1="112.52" y1="94.22" x2="112.52" y2="228.97" xlink:href="#linear-gradient-2"/>
    <linearGradient id="linear-gradient-7" x1="11.01" y1="122.32" x2="11.01" y2="262.57" xlink:href="#linear-gradient"/>
    <linearGradient id="linear-gradient-8" x1="11.01" y1="121.1" x2="11.01" y2="263.79" xlink:href="#linear-gradient-2"/>
    <linearGradient id="linear-gradient-9" x1="445.74" y1="10.7" x2="445.74" y2="140.54" xlink:href="#linear-gradient"/>
    <linearGradient id="linear-gradient-10" x1="445.74" y1="9.48" x2="445.74" y2="141.76" xlink:href="#linear-gradient-2"/>
    <linearGradient id="linear-gradient-11" x1="466.51" y1="79.81" x2="466.51" y2="214.94" gradientTransform="translate(-104.59 72.17) rotate(-6.7) scale(1.13 .94)" xlink:href="#linear-gradient"/>
    <linearGradient id="linear-gradient-12" x1="210.37" y1="78.59" x2="210.37" y2="216.16" gradientTransform="translate(225.24 33.41) rotate(-6.7) scale(1.13 .94) skewX(-13.07)" xlink:href="#linear-gradient-2"/>
    <linearGradient id="linear-gradient-13" x1="320.41" y1="112.32" x2="320.41" y2="244.81" gradientTransform="translate(-6.36 11.92) rotate(-2.11)" xlink:href="#linear-gradient"/>
    <linearGradient id="linear-gradient-14" x1="56.65" y1="111.1" x2="56.65" y2="246.03" gradientTransform="translate(287.19 1.1) rotate(-2.11) skewX(-13.07)" xlink:href="#linear-gradient-2"/>
    <linearGradient id="linear-gradient-15" x1="319.73" y1="33.8" x2="319.73" y2="177.89" xlink:href="#linear-gradient"/>
    <linearGradient id="linear-gradient-16" x1="319.73" y1="32.58" x2="319.73" y2="179.11" xlink:href="#linear-gradient-2"/>
    <linearGradient id="linear-gradient-17" x1="385.54" y1="23.81" x2="385.54" y2="160.59" xlink:href="#linear-gradient"/>
    <linearGradient id="linear-gradient-18" x1="385.54" y1="22.59" x2="385.54" y2="161.82" xlink:href="#linear-gradient-2"/>
  </defs>
  <polyline class="cls-3" points="35.45 122.81 137.89 121.54 138.13 143.94 1.54 145.63 0 2.26 34.15 1.83"/>
  <polygon class="cls-3" points="163.72 145.09 163.72 1.24 149.66 1.11 149.66 144.96 163.72 145.09"/>
  <path class="cls-2" d="m200.45,89.61v56.59h-24.85V62.72l24.85,26.88Zm-24.85-59.15l-.28-30.46,99.53,98.47L374.38,0v146.2h-24.85V55.58l-58.61,59.24-16.46,16.64-16.46-16.64L175.6,30.46Z"/>
  <polygon class="cls-3" points="400.92 144.92 400.92 1.41 386.01 1.27 386.01 144.79 400.92 144.92"/>
  <path class="cls-2" d="m411.54.41h59.63v17.92h-59.63V.41Zm66.48,0h104.36v17.92h-79.51v125.46h-24.85V.41Z"/>
  <g>
    <path class="cls-1" d="m163.58,231.59c-.02-.67,0-1.22.04-1.64.05-.43.09-.79.14-1.09.31-2.01.73-3.73,1.27-5.16.54-1.43,1.21-2.63,2-3.61.2-.24.67-.61,1.41-1.1.74-.49,1.7-1.06,2.89-1.73.85-.55,1.56-1.2,2.14-1.96.58-.76.97-1.69,1.18-2.78.25-.85.64-1.83,1.17-2.92.53-1.1,1.14-2.28,1.81-3.56.22-.37,1.02-2.47,2.42-6.3,1.39-3.84,3.38-9.47,5.97-16.89.75-2.25,1.45-4.2,2.1-5.84.65-1.64,1.21-3.04,1.67-4.2,2.08-5.17,3.66-8.57,4.73-10.18,1.07-1.61,1.89-2.94,2.45-3.97l.07-.46-1.18-4.47,2.98-4.11,3.16-.91c.62-.12,1.31-.97,2.05-2.56.75-1.58,1.89-3.32,3.42-5.21.3-.12.81-.5,1.53-1.14.72-.64,1.65-1.54,2.8-2.69,1-1.03,1.84-1.79,2.52-2.28.68-.49,1.18-.73,1.5-.73,1.08,0,1.81.34,2.19,1.01.38.67.49,1.55.32,2.64-.21,1.34-.97,3.29-2.28,5.84-1.32,2.56-2.08,4.5-2.28,5.84-.09.61-.08,1.11.04,1.5.12.4.29.66.51.78l6.31,5.93c.36.24.58,1.2.64,2.88.06,1.67-.03,3.97-.27,6.89-.13,2.43-.25,4.46-.36,6.07-.11,1.61-.23,2.91-.38,3.88-.68,2.62-1.37,5.26-2.06,7.94-.12,3.41-.23,7-.33,10.77-.79,3.59-1.61,7.24-2.46,10.95-.06.37-.06.69,0,.96.06.27.18.44.37.5.67.06,1.14.34,1.41.82.27.49.33,1.16.2,2.01-.17,1.1-.41,1.97-.73,2.6-.32.64-.71,1.14-1.16,1.51-.6.49-1.07.91-1.43,1.28-.36.37-.61.67-.77.91l-.09,5.66-3.07,12.98c-.17,1.1-.44,2.5-.83,4.2-.38,1.71-.87,3.68-1.45,5.94-.65,1.64-1.17,3.02-1.53,4.11-.37,1.1-.58,1.83-.64,2.19.04,1.04.05,2.13.04,3.29-.49,1.65-1,3.29-1.51,4.93-.51,1.64-1.01,3.26-1.5,4.84-.77,2.13-1.59,3.7-2.47,4.7-.88,1.01-1.8,1.51-2.76,1.51-.52,0-.86-.35-1.02-1.05-.15-.7-.12-1.75.09-3.15.09-.61.3-1.49.62-2.65.32-1.16.52-2.04.62-2.65.07-.43.11-1,.15-1.73.03-.73.09-1.37.17-1.92.26-1.71.79-4.43,1.59-8.18.8-3.75,1.34-6.56,1.63-8.45-.04-1.04-.08-2.1-.11-3.2.3-1.16.56-2.33.78-3.52.22-1.19.37-2.3.45-3.34l1.28-2.47.52-8.5-.38-.27c-.24,0-.62.14-1.12.41-.5.27-1.15.72-1.92,1.33-.52.24-1.31.5-2.38.78-1.07.27-2.45.44-4.15.5-.81.55-1.57,1.04-2.28,1.46-.97.31-2.22.84-3.75,1.6-1.53.76-3.3,1.69-5.32,2.79-1.21.79-2.3,1.42-3.28,1.87-.98.46-1.77.68-2.37.68-.48,0-.93.27-1.33.82-.41.55-.79,1.34-1.15,2.38-.27.98-.77,2.32-1.49,4.02-.73,1.71-1.67,3.84-2.82,6.39-.26.67-.64,1.71-1.14,3.11-.5,1.4-1.08,3.14-1.76,5.21-.36.79-.8,1.78-1.3,2.97-.5,1.19-1.08,2.57-1.72,4.16-.11.73-.3,1.63-.56,2.7-.26,1.07-.6,2.3-1.02,3.7-.33.85-.77,1.93-1.31,3.24-.54,1.31-1.2,2.75-1.96,4.34-.47.97-1.04,1.69-1.72,2.15-.67.46-1.49.68-2.46.68-.68,0-1.16-.35-1.44-1.05-.27-.7-.3-1.78-.08-3.24.24-1.58.64-3.39,1.2-5.43.55-2.04,1.28-4.28,2.18-6.71,1.06-3.23,1.94-5.84,2.65-7.85.71-2.01,1.16-3.5,1.35-4.47.19-.43.48-1.19.89-2.28.41-1.1.9-2.43,1.46-4.02.6-1.52,1.2-3.26,1.83-5.21l-.19-.73-2,.46c-.43-.06-.71-.33-.84-.82-.13-.49-.13-1.12,0-1.92.07-.43.18-.9.34-1.42.16-.52.38-1.14.65-1.87Zm24.5-16.83c.93,0,2.34-.34,4.26-1.01,1.91-.67,3.33-1.01,4.26-1.01.53.18,1.07.34,1.62.46,1.05-.31,2.09-.66,3.12-1.06,1.03-.4,2.07-.75,3.12-1.06.42-.12.76-.35,1.01-.69.25-.33.42-.78.5-1.32.2-1.83.35-3.07.45-3.74.18-1.16.43-2.45.75-3.88.32-1.43.7-2.91,1.13-4.43l-.09-4.11.82-3.74c.04-1.34.11-2.6.19-3.79.08-1.19.22-2.18.42-2.97-.04-.24-.12-.64-.24-1.19-.12-.55-.25-1.13-.4-1.73-.24-1.03-.51-2.02-.78-2.97-.28-.94-.54-1.9-.8-2.88-.39-1.16-.86-2.01-1.42-2.56-.56-.55-1.18-.82-1.87-.82-.8,0-1.78.97-2.92,2.92-1.14,1.95-2.38,4.9-3.71,8.86-.2.49-.68,1.49-1.46,3.01-.78,1.52-1.85,3.5-3.23,5.94-.52,2.31-1.5,5.19-2.95,8.63-1.45,3.44-3.36,7.47-5.72,12.1-.27.43-.43.8-.5,1.1-.07.3-.13.64-.18,1.01-.07.43-.05.75.06.96.11.21.3.32.58.32.4,0,1.06-.06,1.99-.18.92-.12,1.59-.18,1.99-.18Z"/>
    <path class="cls-8" d="m155.59,279.38c-1.22,0-1.84-.9-2.13-1.64-.39-1-.44-2.35-.17-4.15.25-1.63.67-3.52,1.24-5.62.57-2.08,1.31-4.38,2.22-6.84,1.04-3.19,1.93-5.82,2.65-7.83.68-1.93,1.12-3.35,1.29-4.24.02-.12.06-.23.1-.33.18-.41.47-1.15.86-2.21.41-1.09.89-2.42,1.45-4,.46-1.19.93-2.49,1.4-3.9l-.94.21c-.06.02-.13.02-.2,0-1-.14-1.38-1.06-1.52-1.59-.19-.73-.2-1.59-.04-2.64.08-.51.21-1.05.39-1.66.15-.47.33-1.02.57-1.66,0-.6.01-1.1.06-1.53.05-.46.1-.85.15-1.18.32-2.11.78-3.96,1.36-5.49.59-1.56,1.33-2.88,2.19-3.95.18-.22.52-.56,1.59-1.27.75-.49,1.73-1.08,2.93-1.76.73-.47,1.38-1.07,1.89-1.74.46-.61.77-1.33.94-2.2.32-1.1.73-2.12,1.3-3.3.54-1.11,1.15-2.31,1.84-3.61.12-.21.53-1.15,2.34-6.12,1.37-3.78,3.38-9.46,5.96-16.87.75-2.25,1.47-4.25,2.13-5.91l1.67-4.2c2.14-5.32,3.73-8.72,4.86-10.42.94-1.41,1.69-2.61,2.22-3.56l-1.06-4.02c-.13-.47-.04-1.02.21-1.36l2.98-4.11c.11-.15.25-.25.39-.3l3.16-.91c.22-.05.72-.31,1.55-2.07.78-1.66,1.99-3.5,3.57-5.44.09-.11.19-.19.3-.23.1-.04.44-.22,1.34-1.02.72-.64,1.65-1.53,2.76-2.66,1.02-1.06,1.91-1.85,2.63-2.37.81-.58,1.4-.85,1.85-.85,1.34,0,2.26.47,2.81,1.44.38.67.77,1.86.49,3.72-.23,1.53-1.03,3.59-2.43,6.32-1.54,2.99-2.01,4.57-2.13,5.37-.07.47-.03.67-.01.72.05.03.16.2.21.25l6.31,5.93c.78.51.96,2.33,1.02,3.84.07,1.75-.03,4.14-.28,7.11-.13,2.39-.25,4.42-.36,6.04-.11,1.68-.24,3-.4,4.03-.7,2.72-1.37,5.31-2.05,7.93-.12,3.34-.23,6.86-.32,10.55,0,.12-.02.23-.04.34-.79,3.56-1.6,7.18-2.44,10.86.68.12,1.25.53,1.62,1.21.3.55.61,1.52.37,3.06-.2,1.28-.48,2.28-.87,3.06-.39.78-.87,1.4-1.43,1.85-.56.46-1.02.86-1.36,1.21-.19.19-.32.34-.42.46l-.08,5.13c0,.13-.02.26-.05.38l-3.07,12.98c-.15,1-.43,2.42-.82,4.18-.38,1.71-.88,3.73-1.46,5.99-.7,1.8-1.21,3.16-1.57,4.22-.36,1.06-.49,1.56-.54,1.78.04,1,.05,2.06.03,3.18,0,.16-.03.33-.07.48-.5,1.65-1,3.3-1.51,4.95-.51,1.64-1.01,3.25-1.49,4.83-.84,2.35-1.75,4.06-2.71,5.17-1.02,1.17-2.11,1.76-3.25,1.76-.87,0-1.52-.69-1.78-1.89-.2-.93-.18-2.18.07-3.82.11-.69.32-1.62.66-2.84.3-1.09.49-1.92.58-2.46.06-.37.1-.89.13-1.54.03-.79.1-1.5.19-2.11.27-1.75.79-4.46,1.6-8.27.76-3.59,1.3-6.34,1.58-8.18-.04-.99-.08-2-.11-3.04,0-.17.01-.34.05-.5.28-1.11.54-2.26.76-3.41.21-1.13.35-2.18.43-3.14.02-.22.08-.44.17-.62l1.14-2.18.42-6.91c-.1.04-.21.1-.35.18-.47.26-1.09.68-1.82,1.26-.04.03-.09.06-.13.08-.56.26-1.4.53-2.49.81-1.08.28-2.46.45-4.11.51-.77.52-1.49.98-2.16,1.38-1.07.35-2.3.88-3.79,1.62-1.52.76-3.29,1.69-5.3,2.78-1.18.77-2.31,1.42-3.31,1.89-1.06.5-1.92.74-2.61.74-.28,0-.54.16-.8.51-.33.45-.66,1.13-.97,2.03-.26.95-.77,2.32-1.53,4.11-.73,1.72-1.67,3.85-2.84,6.43-.23.59-.61,1.61-1.1,2.99-.49,1.39-1.08,3.11-1.75,5.17-.42.94-.85,1.91-1.34,3.09-.48,1.14-1.03,2.47-1.65,3.97-.12.74-.31,1.61-.56,2.65-.27,1.09-.62,2.34-1.04,3.77-.38.98-.82,2.07-1.37,3.39-.55,1.32-1.22,2.81-2,4.41-.55,1.15-1.24,2-2.04,2.54-.77.52-1.71.79-2.79.79Zm6.6-29.46c-.22,1.06-.67,2.54-1.38,4.53-.71,2-1.59,4.61-2.64,7.82-.89,2.43-1.61,4.64-2.15,6.63-.54,1.97-.92,3.74-1.16,5.24-.24,1.54-.09,2.15-.02,2.34.05.13.18.45.74.45.85,0,1.56-.19,2.13-.58.55-.37,1-.95,1.4-1.76.75-1.56,1.4-2.99,1.93-4.27.54-1.3.97-2.37,1.3-3.22.37-1.25.7-2.46.96-3.51.25-1.02.43-1.87.53-2.54.02-.13.05-.25.1-.37.65-1.59,1.23-2.98,1.73-4.18.51-1.2.95-2.2,1.32-3,.63-1.93,1.22-3.68,1.72-5.09.5-1.42.89-2.47,1.16-3.15,1.18-2.61,2.12-4.73,2.84-6.43.7-1.64,1.18-2.93,1.43-3.83.44-1.28.87-2.17,1.36-2.82.56-.75,1.19-1.13,1.87-1.13.52,0,1.24-.21,2.13-.63.95-.44,2.02-1.06,3.19-1.83,2.08-1.13,3.85-2.06,5.39-2.82,1.55-.77,2.84-1.32,3.84-1.64.57-.36,1.31-.84,2.11-1.38.1-.07.2-.1.31-.11,1.64-.06,3-.22,4.04-.49.98-.25,1.72-.49,2.21-.71.77-.6,1.43-1.05,1.95-1.34.82-.45,1.33-.66,1.74-.37l.38.28c.31.22.49.71.46,1.22l-.52,8.5c-.01.23-.07.46-.17.64l-1.15,2.2c-.09.99-.24,2.06-.45,3.18-.22,1.15-.47,2.28-.74,3.39.03,1,.06,1.97.1,2.92,0,.12,0,.24-.02.36-.29,1.9-.85,4.78-1.65,8.55-.79,3.7-1.31,6.42-1.57,8.08-.07.49-.13,1.06-.15,1.72-.03.8-.09,1.43-.16,1.93-.1.68-.32,1.61-.66,2.85-.37,1.35-.52,2.08-.58,2.45-.24,1.54-.17,2.22-.11,2.49.03.16.05.21.25.21.79,0,1.53-.41,2.27-1.26.78-.9,1.54-2.35,2.25-4.32.46-1.51.96-3.13,1.47-4.78.49-1.56.97-3.12,1.44-4.68.01-1.03,0-2.01-.04-2.94,0-.12,0-.24.02-.35.05-.32.17-.89.7-2.47.37-1.11.9-2.52,1.56-4.19.52-2.04,1-4.02,1.38-5.7.37-1.67.64-3.04.8-4.09l3.06-12.93.08-5.47c0-.31.09-.61.23-.83.2-.31.49-.66.9-1.07.37-.38.87-.83,1.5-1.34.36-.29.65-.67.9-1.17.25-.5.45-1.22.59-2.14.05-.32.08-.73-.04-.95-.05-.1-.24-.33-.84-.38-.59-.18-.95-.66-1.09-1.35-.1-.48-.11-1.03-.02-1.61.86-3.77,1.67-7.36,2.45-10.9.1-3.71.2-7.25.32-10.61,0-.13.02-.26.05-.38.69-2.68,1.38-5.33,2.06-7.94.1-.74.23-1.99.33-3.55.11-1.61.23-3.62.36-6.05.24-2.88.33-5.12.27-6.72-.06-1.55-.24-1.9-.25-1.91l-6.27-5.87c-.29-.19-.64-.57-.88-1.36-.2-.65-.23-1.42-.09-2.29.23-1.53,1.03-3.59,2.43-6.32,1.54-2.99,2.01-4.57,2.13-5.36.14-.93-.01-1.34-.14-1.57-.1-.18-.45-.58-1.58-.58-.05,0-.34.03-1.16.61-.64.46-1.45,1.2-2.41,2.19-1.14,1.16-2.1,2.07-2.84,2.74-.83.74-1.28,1.04-1.55,1.18-1.42,1.75-2.48,3.37-3.16,4.82-.89,1.89-1.75,2.89-2.61,3.06l-2.89.84-2.4,3.3.98,3.69c.06.23.07.49.04.73l-.07.46c-.03.18-.08.35-.16.5-.58,1.08-1.4,2.41-2.51,4.07-1.02,1.54-2.57,4.88-4.61,9.95l-1.67,4.2c-.64,1.61-1.34,3.55-2.07,5.76-2.6,7.45-4.61,13.14-5.98,16.93-2.14,5.87-2.39,6.3-2.52,6.53-.64,1.21-1.24,2.38-1.76,3.47-.49,1.02-.86,1.93-1.09,2.7-.21,1.16-.69,2.29-1.39,3.21-.64.84-1.43,1.57-2.36,2.16-1.21.69-2.16,1.25-2.89,1.73-.96.63-1.19.88-1.22.92-.71.87-1.32,1.97-1.81,3.26-.5,1.32-.9,2.94-1.19,4.83-.04.28-.08.62-.13,1.01-.04.35-.05.82-.03,1.4,0,.23-.03.45-.1.65-.26.7-.47,1.3-.62,1.79-.13.44-.23.83-.28,1.17-.11.71-.06,1.05-.03,1.19,0,0,.03.02.08.04l1.89-.43c.36-.1.73.23.87.76l.19.73c.08.32.07.67-.02.98-.63,1.97-1.25,3.75-1.86,5.3-.55,1.55-1.04,2.89-1.45,4-.38,1.01-.66,1.74-.86,2.2Zm54.02-42.35h0Zm-32.11,8.79c-.68,0-1.04-.44-1.23-.8-.26-.5-.33-1.17-.21-1.98.06-.41.13-.78.21-1.12.1-.48.33-.99.68-1.55,2.28-4.47,4.19-8.52,5.63-11.92,1.41-3.34,2.38-6.16,2.87-8.36.03-.15.08-.29.15-.41,1.37-2.42,2.45-4.41,3.21-5.88.94-1.83,1.28-2.59,1.41-2.9,1.33-3.95,2.61-7.02,3.8-9.03,1.32-2.24,2.47-3.33,3.53-3.33.84,0,1.62.34,2.3,1.02.68.66,1.25,1.68,1.7,3.03.28,1.06.54,2,.81,2.93.29.97.55,1.99.81,3.06.15.61.28,1.2.4,1.77.12.57.21.99.25,1.25.05.25.04.52-.03.76-.17.69-.3,1.58-.37,2.65-.08,1.17-.14,2.41-.19,3.72,0,.11-.02.22-.04.32l-.77,3.54.09,3.89c0,.18-.02.36-.07.53-.42,1.47-.79,2.93-1.11,4.33-.31,1.37-.55,2.64-.72,3.77-.1.66-.25,1.88-.44,3.67-.13.88-.39,1.54-.77,2.05-.36.48-.83.8-1.39.96-1.02.3-2.05.65-3.07,1.04-1.05.41-2.12.77-3.17,1.07-.09.03-.18.03-.27,0-.53-.12-1.06-.27-1.59-.45-.86.02-2.2.35-3.99.98-2,.7-3.45,1.04-4.44,1.04-.39,0-1.03.06-1.92.18-.96.13-1.64.19-2.06.19Zm9.42-24.73c-.55,2.36-1.55,5.27-2.99,8.67-1.46,3.47-3.4,7.57-5.76,12.19-.33.53-.37.73-.37.74-.05.21-.09.44-.13.68.44-.01,1.01-.07,1.74-.17.96-.13,1.64-.19,2.06-.19.86,0,2.23-.33,4.08-.98,2-.7,3.45-1.04,4.44-1.04.06,0,.12.01.18.03.47.16.94.3,1.42.41.97-.29,1.96-.62,2.94-1,1.05-.41,2.12-.77,3.17-1.07.27-.08.49-.22.63-.41.12-.16.2-.38.25-.68.19-1.79.35-3.06.45-3.74.19-1.21.44-2.55.77-4,.31-1.39.67-2.82,1.08-4.26l-.09-3.84c0-.15.01-.29.04-.42l.78-3.59c.04-1.3.11-2.53.19-3.69.07-1.1.2-2.07.38-2.88-.04-.21-.09-.46-.16-.77-.11-.53-.24-1.1-.39-1.69-.24-1.02-.49-1.98-.76-2.89-.28-.96-.55-1.93-.81-2.93-.29-.85-.67-1.55-1.11-1.98-.43-.42-.9-.62-1.43-.62-.31,0-1.03.33-2.32,2.51-1.09,1.86-2.3,4.75-3.59,8.6-.25.62-.74,1.64-1.54,3.21-.76,1.5-1.8,3.4-3.16,5.81Z"/>
  </g>
  <g>
    <path class="cls-6" d="m547.02,166.31c.43,2.98.76,5.78,1,8.4-.99,1.22-2.23,2.33-3.71,3.34-1.48,1.01-3.17,1.91-5.06,2.7-.51.18-1.12.43-1.83.73-.71.3-1.51.61-2.4.91-1.19.12-2.61.3-4.28.55-1.67.24-3.64.58-5.92,1.01-3.71,3.72-6.94,6.65-9.7,8.78-2.76,2.13-5.01,3.51-6.75,4.12l-1.09,1.19c-1.51.91-3.28,1.66-5.32,2.24-2.04.58-4.42,1.08-7.14,1.51-.45-.18-.88-.62-1.28-1.32-.4-.7-.82-1.69-1.26-2.97.5-.67,1.14-1.55,1.91-2.62.77-1.07,1.63-2.34,2.58-3.81.81-1.35,1.69-2.43,2.64-3.25.95-.82,2.1-1.42,3.44-1.78,1.39-.43,2.95-1.03,4.68-1.83.48-.49,1.05-.99,1.71-1.51.66-.52,1.41-1.14,2.25-1.87,1.03-.67,2.14-1.61,3.33-2.83,1.19-1.22,2.53-2.71,4-4.47,1.97-2.37,3.55-4.28,4.74-5.71,1.18-1.43,1.9-2.33,2.16-2.69.45-.85.91-1.63,1.38-2.33.47-.7,1.01-1.35,1.63-1.96.79-1.46,1.77-3.3,2.96-5.52,1.19-2.22,2.58-4.79,4.2-7.72.25-.3.57-.74.96-1.32.39-.58.84-1.2,1.34-1.87,1.02-1.4,1.93-3.53,2.73-6.39.8-2.86,1.51-6.33,2.14-10.41.43-2.8.41-5.72-.07-8.77-.48-3.04-1.44-6.27-2.89-9.68-1.22-2.8-2.58-5.31-4.09-7.53-1.51-2.22-3.1-4.03-4.77-5.43-1.28-1.1-2.47-2.18-3.57-3.24-1.1-1.07-2.11-2.02-3.02-2.88-1.03,3.05-2.39,7.24-4.07,12.6-1.69,5.36-3.66,11.87-5.92,19.54-2.53,8.65-4.51,15.61-5.92,20.91-1.42,5.3-2.26,8.86-2.54,10.68-.48,1.52-.91,3.04-1.3,4.57l-5.17,17.99c-2.04,4.14-3.72,7.21-5.03,9.22-1.31,2.01-2.25,3.01-2.81,3.01-.28,0-.5-.35-.63-1.05s-.21-1.81-.22-3.33l1.53-5.21c-.07-.37-.11-.88-.13-1.55.85-3.96,1.69-7.96,2.51-12.01.82-4.05,1.67-8.08,2.53-12.1.89-4.51,1.84-8.74,2.85-12.7,1.01-3.96,2.01-7.61,3.01-10.96v-4.66c.45-1.16.92-2.59,1.4-4.29.48-1.7.97-3.65,1.47-5.85.59-2.8,1.08-5.07,1.47-6.81.39-1.73.71-2.94.98-3.61.28-.79.61-1.8.98-3.01.37-1.22.8-2.68,1.31-4.38.22-.67,1.13-1.96,2.71-3.88,1.58-1.92,2.63-3.36,3.14-4.34.87-.18,1.54-.44,1.99-.78.45-.34.72-.78.81-1.33.07-.43-.11-.79-.53-1.1-.42-.3-1.07-.55-1.97-.73-.44,0-.94-.08-1.5-.23-.56-.15-1.11-.41-1.66-.78l-4.39-3.65c-.94-.73-1.63-1.46-2.06-2.19-.44-.73-.59-1.49-.47-2.28.43-1.22.82-2.43,1.17-3.65-.1-1.22-.18-2.22-.24-3.01-.06-.79-.06-1.4,0-1.83.08-.55.24-.97.47-1.28.23-.3.5-.46.82-.46,1.08.31,2.02.58,2.83.82.43-.18.86-.38,1.3-.59.43-.21.87-.44,1.31-.69.97,0,1.81.11,2.55.32.73.21,1.28.44,1.64.68.5.43,1.01.88,1.54,1.37.53.49,1.05.91,1.55,1.28.5-.12,1.17-.27,2-.46.24,0,.45.06.64.19.41.49.92.93,1.55,1.32.62.4,1.35.75,2.19,1.05.93.24,1.71.5,2.35.78.64.27,1.14.56,1.5.87,3.75,3.35,7,6.5,9.74,9.46,2.74,2.95,4.95,5.83,6.61,8.63,2.63,4.32,4.36,8.96,5.17,13.89.81,4.93.81,10.08-.02,15.44-1.31,8.53-4.37,17.57-9.17,27.14-4.81,9.56-11.31,19.62-19.53,30.15.62-.37,1.42-.76,2.41-1.19.99-.43,2.14-.95,3.44-1.56,2.66-.85,5.42-1.77,8.26-2.75,1.8-.73,3.35-1.52,4.65-2.38,1.3-.85,2.4-1.86,3.3-3.02Z"/>
    <path class="cls-7" d="m494.82,203c-.07,0-.14-.01-.21-.04-.61-.24-1.18-.82-1.68-1.71-.43-.77-.89-1.84-1.36-3.19-.17-.5-.1-1.11.18-1.49.5-.67,1.13-1.54,1.9-2.6.76-1.06,1.61-2.31,2.54-3.76.84-1.4,1.8-2.58,2.82-3.46,1.02-.89,2.27-1.54,3.7-1.93,1.31-.4,2.82-.98,4.48-1.74.48-.48,1.05-.98,1.69-1.48.65-.51,1.39-1.12,2.21-1.84,1.06-.7,2.14-1.62,3.28-2.78,1.17-1.19,2.5-2.68,3.95-4.42l4.73-5.7c1.51-1.82,1.97-2.43,2.12-2.63.39-.75.87-1.57,1.37-2.31.48-.71,1.03-1.39,1.65-2.01.77-1.43,1.73-3.22,2.88-5.37,1.19-2.23,2.59-4.8,4.21-7.73.03-.06.07-.12.11-.17.23-.29.53-.7.9-1.25.4-.59.86-1.23,1.38-1.92.92-1.26,1.77-3.27,2.52-5.95.78-2.79,1.48-6.22,2.1-10.21.4-2.6.37-5.36-.07-8.21-.45-2.89-1.39-6.02-2.78-9.3-1.17-2.7-2.51-5.16-3.97-7.32-1.45-2.14-3-3.9-4.6-5.24-1.29-1.1-2.5-2.2-3.61-3.28-.81-.78-1.56-1.5-2.27-2.17-.97,2.91-2.2,6.73-3.67,11.39-1.68,5.34-3.67,11.91-5.91,19.51-2.5,8.54-4.49,15.57-5.91,20.87-1.39,5.2-2.23,8.74-2.51,10.5-.01.08-.03.17-.06.24-.46,1.49-.9,3-1.28,4.49l-5.18,18.03c-.03.09-.06.17-.09.24-2.05,4.16-3.77,7.31-5.11,9.35-1.55,2.37-2.56,3.38-3.39,3.38-.39,0-1.08-.25-1.41-1.93-.16-.82-.24-2.02-.25-3.67,0-.18.02-.35.07-.51l1.42-4.84c-.04-.38-.07-.83-.09-1.37,0-.15,0-.29.04-.43.85-3.95,1.69-7.95,2.51-11.99.83-4.05,1.67-8.1,2.53-12.12.89-4.5,1.86-8.8,2.87-12.76.98-3.85,1.97-7.47,2.95-10.78v-4.39c0-.22.03-.44.11-.63.44-1.11.9-2.5,1.36-4.15.47-1.68.96-3.62,1.45-5.76.59-2.78,1.08-5.06,1.46-6.8.41-1.84.75-3.09,1.05-3.84.26-.73.57-1.71.93-2.9.37-1.21.8-2.67,1.3-4.37.21-.63.71-1.64,2.94-4.34,1.53-1.85,2.54-3.25,3.01-4.14.13-.25.32-.41.52-.45.78-.16,1.37-.39,1.75-.67.09-.06.18-.14.26-.24-.24-.17-.73-.4-1.7-.6-.39-.01-.94-.08-1.54-.24-.62-.17-1.24-.46-1.84-.86l-4.45-3.7c-1.02-.79-1.77-1.6-2.27-2.44-.78-1.29-.79-2.55-.66-3.38.02-.1.04-.2.07-.3.38-1.08.74-2.18,1.05-3.26l-.21-2.68c-.07-.94-.07-1.68.02-2.25.12-.8.37-1.44.72-1.92.41-.55.95-.88,1.51-.74,1,.28,1.88.54,2.65.77.36-.16.72-.32,1.08-.5.42-.21.85-.43,1.28-.67.09-.05.18-.08.28-.08,1,0,1.91.12,2.7.34.79.23,1.39.48,1.82.76.58.49,1.1.95,1.64,1.45.43.39.85.75,1.26,1.06.47-.11,1.05-.24,1.76-.4.48,0,.8.09,1.08.28.06.04.12.09.17.16.35.41.8.8,1.36,1.16.57.37,1.27.7,2.07.99.93.24,1.72.5,2.39.79.71.3,1.25.62,1.67.98,3.77,3.37,7.07,6.57,9.81,9.53,2.78,2.99,5.05,5.96,6.74,8.82,2.71,4.44,4.51,9.29,5.35,14.41.84,5.1.83,10.49-.01,16.02-1.33,8.66-4.46,17.94-9.31,27.6-4.23,8.42-9.84,17.31-16.7,26.48.66-.3,1.37-.62,2.14-.99,2.73-.88,5.48-1.79,8.33-2.77,1.73-.71,3.25-1.49,4.5-2.31,1.22-.8,2.26-1.75,3.1-2.83.22-.28.51-.37.78-.23.27.14.47.48.53.9.43,3.01.77,5.86,1.01,8.49.04.42-.07.85-.29,1.12-1.04,1.28-2.35,2.46-3.89,3.51-1.51,1.03-3.25,1.95-5.17,2.76-.53.19-1.13.43-1.83.73-.72.31-1.54.62-2.44.93-1.3.15-2.72.33-4.38.57-1.61.24-3.52.56-5.71.97-3.66,3.66-6.9,6.59-9.62,8.69-2.72,2.1-5,3.5-6.78,4.16l-.96,1.05c-.05.06-.11.11-.17.14-1.55.94-3.39,1.71-5.47,2.3-2.07.59-4.49,1.1-7.2,1.52-.03,0-.05,0-.08,0Zm-1.52-5.25c.3.79.59,1.43.86,1.91.25.43.5.73.75.88,2.6-.41,4.92-.9,6.91-1.47,1.93-.55,3.64-1.26,5.08-2.11l1.01-1.1c.09-.09.19-.16.29-.2,1.67-.59,3.88-1.94,6.57-4.01,2.71-2.1,5.95-5.03,9.62-8.71.1-.11.22-.17.35-.19,2.29-.43,4.26-.77,5.94-1.01,1.67-.25,3.11-.43,4.3-.55.75-.28,1.54-.57,2.24-.87.72-.31,1.35-.56,1.87-.74,1.82-.76,3.48-1.65,4.91-2.63,1.24-.84,2.3-1.76,3.17-2.75-.18-1.81-.4-3.73-.67-5.74-.73.74-1.55,1.41-2.45,2.01-1.32.87-2.93,1.69-4.76,2.44-2.88.99-5.64,1.91-8.31,2.76-1.23.59-2.39,1.11-3.38,1.54-.96.41-1.75.8-2.34,1.15-.37.21-.79,0-.99-.51-.2-.51-.13-1.17.17-1.56,8.13-10.43,14.66-20.51,19.41-29.96,4.71-9.38,7.75-18.36,9.03-26.67.79-5.15.8-10.15.02-14.87-.78-4.71-2.45-9.21-4.98-13.36-1.62-2.73-3.8-5.58-6.48-8.47-2.71-2.92-5.97-6.08-9.68-9.4-.29-.25-.73-.5-1.3-.74-.6-.26-1.37-.51-2.27-.75-.93-.34-1.71-.71-2.37-1.13-.65-.41-1.18-.86-1.63-1.37-.07-.03-.15-.04-.24-.04-.71.17-1.37.32-1.87.44-.16.04-.33,0-.48-.1-.53-.38-1.08-.83-1.63-1.34-.52-.48-1.03-.93-1.52-1.35-.14-.09-.57-.3-1.4-.55-.65-.19-1.41-.29-2.25-.3-.4.22-.8.43-1.2.63-.45.22-.89.42-1.33.61-.12.05-.25.06-.38.02-.78-.24-1.69-.5-2.73-.8-.11.02-.18.08-.23.15-.1.13-.17.34-.22.64-.02.16-.06.56,0,1.41l.24,3c.02.22,0,.44-.06.64-.34,1.19-.73,2.39-1.14,3.58-.02.25.02.59.3,1.05.37.62.98,1.26,1.84,1.93l4.41,3.67c.42.28.92.51,1.41.65.51.14.97.21,1.36.21,1.09.21,1.82.49,2.32.85,1.09.8,1.04,2,.96,2.48-.1.63-.39,1.52-1.24,2.15-.47.35-1.11.62-1.92.82-.6,1.02-1.6,2.39-3.05,4.15-2.13,2.58-2.45,3.35-2.49,3.48-.49,1.66-.92,3.12-1.29,4.34-.38,1.25-.71,2.27-1,3.08-.18.45-.47,1.37-.92,3.42-.39,1.73-.87,3.99-1.46,6.79-.51,2.23-1.01,4.22-1.5,5.95-.46,1.6-.91,3-1.35,4.14v4.32c0,.17-.02.35-.06.51-.99,3.33-2,7-2.99,10.9-1,3.9-1.95,8.14-2.83,12.61-.86,4.04-1.7,8.07-2.53,12.11-.81,3.98-1.64,7.92-2.47,11.81.02.58.06.9.09,1.06.05.27.04.56-.04.82l-1.46,4.96c.02,1.57.11,2.35.19,2.73,0,.04.01.07.02.09.27-.18.88-.75,2.08-2.57,1.27-1.94,2.92-4.96,4.9-8.98l5.13-17.86c.38-1.46.81-2.98,1.28-4.49.31-1.94,1.15-5.46,2.56-10.73,1.43-5.33,3.42-12.38,5.93-20.95,2.25-7.62,4.24-14.21,5.93-19.57,1.68-5.34,3.05-9.59,4.08-12.63.1-.3.28-.53.5-.62.22-.1.45-.04.64.14.92.86,1.93,1.82,3.04,2.89,1.09,1.05,2.28,2.13,3.53,3.21,1.72,1.44,3.39,3.33,4.94,5.62,1.55,2.28,2.96,4.88,4.2,7.74,1.49,3.52,2.5,6.91,3,10.07.5,3.22.53,6.35.07,9.33-.63,4.13-1.37,7.69-2.18,10.61-.84,3.01-1.83,5.31-2.93,6.82-.5.67-.94,1.28-1.32,1.84-.38.56-.7,1-.95,1.32-1.59,2.88-2.97,5.42-4.14,7.61-1.19,2.22-2.17,4.07-2.96,5.53-.05.1-.11.18-.18.25-.57.56-1.07,1.17-1.5,1.81-.45.67-.89,1.42-1.32,2.22-.36.53-1.11,1.46-2.29,2.89l-4.74,5.71c-1.49,1.78-2.85,3.3-4.06,4.53-1.23,1.25-2.39,2.24-3.46,2.94-.77.68-1.53,1.31-2.2,1.83-.63.49-1.18.98-1.63,1.43-.07.07-.14.12-.22.16-1.76.8-3.36,1.43-4.76,1.85-1.26.34-2.33.9-3.2,1.65-.87.75-1.69,1.77-2.45,3.01-.98,1.52-1.85,2.8-2.62,3.88-.55.76-1.02,1.42-1.44,1.98Z"/>
  </g>
  <g>
    <path class="cls-11" d="m382.09,198.99l1,8.4c-.54.61-1.17,1.26-1.9,1.96-.73.7-1.58,1.45-2.55,2.24-.91.43-2.02,1.04-3.33,1.83-1.31.79-2.81,1.7-4.49,2.74-1.34,1.09-2.42,1.92-3.24,2.46-.83.55-1.38.82-1.66.82-.52,0-1.53.34-3.02,1.01-1.49.67-3.46,1.67-5.92,3.01-1.31.67-2.69,1.36-4.15,2.05-1.46.7-2.95,1.32-4.48,1.87l-3.56-1.19-2.53,1.55c-.76,0-1.54-.02-2.32-.05-.78-.03-1.52-.11-2.23-.23-1.16-.06-1.99-.31-2.51-.73-.52-.43-.72-1.03-.59-1.83l.89-3.47-.26-.64c-1.37,0-2.24-.27-2.62-.82-.38-.55-.41-1.83-.11-3.83.14-.91.4-2.43.79-4.57.39-2.13.9-4.9,1.55-8.31.05-.3.27-.94.69-1.92.41-.97.65-1.67.71-2.1-.11-.61-.15-1.1-.14-1.46.02-.37.05-.7.09-1.01.44-2.37,1.06-5.3,1.86-8.76.79-3.47,1.76-7.58,2.89-12.33.92-2.86,1.82-6.09,2.69-9.68.33-2.68.67-5.42,1.02-8.22,3.04-10.1,6.13-20.27,9.26-30.5.52-1.83,1.24-3.56,2.16-5.21.92-1.64,1.95-3.23,3.11-4.75.47-.43.78-.76.94-1,.28-.55.65-1.23,1.1-2.05.45-.82.97-1.75,1.57-2.78.28-.24.73-.61,1.34-1.1.62-.49,1.45-1.16,2.51-2.01.48-.49,1.03-1.06,1.65-1.74.62-.67,1.35-1.46,2.17-2.37,1.74-1.4,3.39-2.88,4.93-4.43,1.54-1.55,3.33-2.51,5.36-2.88.93-.06,1.87-.14,2.81-.23.94-.09,1.84-.2,2.7-.32.84-.24,1.57-.4,2.18-.46.42-.12.79-.24,1.11-.36.32-.12.6-.18.84-.18s.57.05.97.14c.41.09.96.23,1.66.41.55.06,1.03.09,1.43.09s.79-.03,1.16-.09c1.5.73,2.52,1.8,3.07,3.2.55,1.4.67,3.07.38,5.02-.64,4.2-1.39,7.32-2.25,9.36-.86,2.04-1.87,3.06-3.03,3.06-.88,0-1.79-.68-2.7-2.05-.92-1.37-3.85-2.05-8.79-2.05-2.14.61-4.27,1.22-6.37,1.83-.28.49-.56.85-.86,1.1-.3.24-.56.43-.78.55l-1.93-1.19c-.7.37-1.58,1.37-2.63,3.01-1.06,1.64-2.25,3.9-3.57,6.76-.3.61-.56,1.37-.8,2.28-.24.91-.45,1.98-.64,3.2-1.4,4.38-2.77,8.61-4.12,12.69-1.36,4.38-2.42,7.7-3.19,9.95-.77,2.25-1.23,3.62-1.38,4.11-.21.61-.4,1.19-.57,1.73-.17.55-.29,1.1-.37,1.64-.12.79-.12,1.4.02,1.83.14.43.4.64.81.64.36,0,1.39-1.01,3.09-3.01,1.7-2.01,2.9-3.13,3.63-3.38.9-.37,1.82-.76,2.75-1.19.93-.43,1.9-.94,2.92-1.55.39-.18,1.38-.43,2.98-.73,1.59-.3,3.81-.67,6.65-1.09l1.58.73,3.34-.91,1.51,1.19c.31.61.57,1.36.77,2.24.21.88.37,1.84.49,2.88-.56,3.65-1.25,6.42-2.06,8.31-.81,1.89-1.74,2.83-2.79,2.83l-3.01-2.01c-2.8.43-5.57.84-8.3,1.23-2.74.4-5.52.78-8.35,1.14-3.54,1.04-6.39,2.71-8.55,5.02-2.16,2.31-3.64,5.36-4.42,9.13-.16.79-.49,2.01-.98,3.65-.49,1.64-1.09,3.68-1.78,6.12v2.74c-.76,2.62-1.42,5.08-1.98,7.4-.56,2.31-.97,4.38-1.25,6.21-.09.61-.1,1.05-.02,1.32.08.27.21.35.39.23,1.97-.24,3.54-.43,4.73-.55,1.18-.12,2.01-.15,2.49-.09,1.03.12,2.07.24,3.14.36l3.87-.46c.42-.12,1.37-.61,2.85-1.46,1.48-.85,2.76-1.28,3.85-1.28,1.17,0,2.37-.18,3.61-.55,1.24-.37,2.45-.85,3.63-1.46,1.18-.61,2.35-1.23,3.51-1.87,1.16-.64,2.34-1.26,3.51-1.87.43-.18,1.01-.52,1.75-1,.74-.49,1.61-1.13,2.62-1.92Z"/>
    <path class="cls-9" d="m342.26,228.97c-.77,0-1.55-.02-2.34-.05-.8-.03-1.57-.11-2.3-.24-1.23-.06-2.17-.35-2.81-.87-.84-.69-1.2-1.85-1-3.18l.67-2.64c-1.19-.1-1.98-.47-2.43-1.13-.61-.89-.72-2.48-.33-4.99.14-.92.41-2.46.8-4.61.39-2.13.9-4.91,1.55-8.32.04-.27.17-.8.78-2.24.33-.79.49-1.24.55-1.49-.09-.58-.12-1.07-.1-1.49.02-.43.06-.83.11-1.2.46-2.44,1.09-5.41,1.88-8.89.79-3.47,1.76-7.59,2.89-12.34.94-2.92,1.83-6.14,2.69-9.69l.98-8.02c.01-.1.03-.19.06-.28,3.04-10.11,6.13-20.28,9.27-30.5.54-1.9,1.31-3.75,2.27-5.48.93-1.68,2.01-3.32,3.2-4.88.68-.64.85-.88.89-.94.23-.45.6-1.15,1.05-1.98.45-.83.98-1.77,1.59-2.81.06-.1.13-.19.2-.25.28-.25.74-.62,1.37-1.12.62-.49,1.45-1.15,2.5-2,.4-.42.95-.99,1.57-1.65.62-.67,1.34-1.45,2.16-2.36,1.8-1.46,3.44-2.93,4.96-4.46,1.64-1.65,3.56-2.69,5.71-3.07.99-.07,1.92-.14,2.85-.24.93-.09,1.82-.2,2.68-.32.81-.24,1.56-.4,2.2-.46.3-.1.66-.21.97-.33.72-.28,1.15-.29,2.13-.07.42.09.97.23,1.68.42.89.09,1.67.1,2.37-.01.11-.02.23,0,.33.05,1.68.82,2.86,2.08,3.52,3.73.66,1.68.81,3.67.47,5.93-.67,4.38-1.44,7.56-2.36,9.74-1.01,2.41-2.26,3.63-3.71,3.63-1.1,0-2.2-.81-3.27-2.41-.34-.51-1.82-1.69-8.15-1.7-2.03.58-4.04,1.15-6.03,1.73-.28.45-.58.8-.9,1.05-.34.28-.63.48-.88.62-.19.11-.4.1-.58-.01l-1.62-1c-.42.32-1.09,1.03-2.06,2.54-1.02,1.59-2.2,3.82-3.49,6.61-.26.55-.5,1.22-.71,2.03-.22.85-.43,1.86-.61,3.02-.01.09-.03.17-.06.25-1.4,4.39-2.77,8.62-4.12,12.71-1.37,4.43-2.42,7.7-3.19,9.97-.76,2.23-1.22,3.6-1.37,4.08-.22.63-.4,1.18-.56,1.71-.14.47-.25.94-.32,1.41-.12.76-.04,1-.04,1.01.08-.07.6-.36,2.67-2.8,1.83-2.17,3.09-3.32,3.95-3.61.86-.35,1.77-.74,2.69-1.16.9-.41,1.86-.92,2.86-1.52.34-.16.96-.38,3.17-.8,1.6-.31,3.83-.67,6.67-1.1.1-.02.21,0,.32.05l1.39.64,3.14-.86c.18-.05.36,0,.52.12l1.51,1.19c.1.08.2.2.27.34.36.71.66,1.57.89,2.57.22.95.4,1.98.53,3.07.02.16.02.33,0,.49-.58,3.77-1.31,6.7-2.17,8.7-.97,2.25-2.13,3.39-3.46,3.39-.11,0-.22-.04-.33-.11l-2.82-1.88c-2.73.41-5.43.82-8.09,1.2-2.74.4-5.52.78-8.36,1.14-3.32.98-6.1,2.6-8.16,4.8-2.01,2.15-3.39,5-4.11,8.5-.17.84-.5,2.08-1.02,3.79-.48,1.59-1.05,3.54-1.71,5.87v2.48c0,.17-.02.34-.07.5-.76,2.6-1.42,5.06-1.96,7.32-.54,2.25-.95,4.29-1.23,6.06,1.75-.21,3.16-.38,4.25-.49,1.24-.13,2.09-.16,2.61-.09l3.13.37,3.75-.46c.12-.04.76-.31,2.62-1.39,1.56-.9,2.95-1.36,4.13-1.36,1.11,0,2.28-.18,3.46-.52,1.21-.36,2.39-.83,3.53-1.42,1.17-.6,2.34-1.23,3.5-1.86,1.17-.64,2.35-1.27,3.53-1.88.44-.19.99-.51,1.69-.97.72-.47,1.58-1.11,2.57-1.88.23-.18.5-.19.73-.01.23.17.39.5.44.88l1,8.4c.05.46-.07.92-.31,1.2-.55.63-1.2,1.3-1.95,2.02-.75.72-1.63,1.49-2.59,2.28-.05.04-.09.07-.15.09-.87.41-1.97,1.01-3.27,1.79-1.31.79-2.8,1.7-4.49,2.74-1.3,1.07-2.38,1.89-3.23,2.45-1.23.82-1.69.92-1.99.92-.25,0-.94.12-2.79.96-1.46.66-3.44,1.66-5.88,2.99-1.33.68-2.72,1.37-4.18,2.07-1.47.71-3,1.34-4.54,1.9-.12.05-.24.04-.36,0l-3.31-1.11-2.3,1.41c-.1.06-.2.09-.3.09Zm3.18-70.79l-1,8.07c-.92,3.82-1.83,7.11-2.76,9.99-1.1,4.62-2.06,8.72-2.85,12.19-.79,3.44-1.41,6.36-1.84,8.7-.03.18-.05.45-.06.75,0,.11,0,.42.11,1.06.03.19.04.4,0,.59-.09.58-.34,1.35-.82,2.48-.5,1.19-.58,1.52-.58,1.55-.65,3.45-1.17,6.21-1.55,8.34-.38,2.11-.65,3.62-.78,4.52-.34,2.19-.12,2.68-.12,2.69,0,0,.34.47,2.05.47.28,0,.54.22.69.58l.26.64c.13.33.16.73.07,1.09l-.89,3.47s0,.11.23.31c.28.23.88.51,2.16.58.74.12,1.46.2,2.22.22.72.03,1.43.04,2.14.05l2.38-1.46c.15-.09.32-.11.48-.06l3.38,1.13c1.44-.52,2.87-1.12,4.24-1.78,1.45-.7,2.83-1.38,4.13-2.05,2.45-1.34,4.46-2.36,5.95-3.03,2.11-.95,2.86-1.06,3.25-1.06.03,0,.31-.04,1.34-.72.8-.53,1.87-1.34,3.18-2.42,1.77-1.1,3.27-2.01,4.58-2.8,1.32-.8,2.4-1.39,3.31-1.83.91-.74,1.72-1.46,2.43-2.14.54-.51,1.02-1,1.45-1.46l-.72-6.03c-.62.47-1.19.87-1.69,1.2-.77.51-1.39.86-1.86,1.06-1.13.59-2.3,1.21-3.46,1.84-1.17.64-2.35,1.27-3.53,1.88-1.2.62-2.46,1.13-3.74,1.5-1.28.38-2.55.57-3.77.57-.98,0-2.18.4-3.56,1.2-2.04,1.18-2.68,1.43-2.98,1.52l-3.96.48-3.27-.37c-.43-.06-1.23-.03-2.37.09-1.16.12-2.7.3-4.61.53-.29.13-.53.06-.69-.03-.19-.11-.45-.36-.61-.92-.15-.54-.16-1.2-.02-2.09.29-1.87.72-4.01,1.28-6.35.54-2.24,1.19-4.67,1.93-7.23v-2.48c0-.17.02-.33.06-.49.7-2.44,1.29-4.49,1.79-6.14.48-1.59.8-2.77.95-3.51.83-4.02,2.42-7.31,4.72-9.77,2.25-2.4,5.23-4.16,8.86-5.22,2.91-.38,5.69-.76,8.43-1.16,2.73-.4,5.5-.81,8.3-1.23.14-.02.28.01.41.1l2.84,1.89c.7-.09,1.34-.84,1.96-2.27.74-1.72,1.38-4.29,1.91-7.67-.11-.87-.25-1.69-.43-2.44-.15-.65-.34-1.22-.55-1.69l-1.09-.86-3.07.84c-.13.04-.26.02-.38-.03l-1.42-.66c-2.75.42-4.91.77-6.47,1.07-1.93.37-2.61.58-2.84.69-.99.59-1.99,1.13-2.93,1.56-.94.43-1.86.83-2.77,1.2-.37.13-1.25.69-3.34,3.16-2.55,3.02-3.15,3.27-3.58,3.27-.97,0-1.38-.84-1.54-1.34-.22-.68-.25-1.54-.08-2.63.1-.63.24-1.26.42-1.87.17-.57.37-1.17.59-1.8.14-.45.61-1.82,1.38-4.09.75-2.21,1.82-5.54,3.17-9.91,1.34-4.06,2.7-8.25,4.08-12.58.19-1.22.41-2.31.66-3.24.26-1,.57-1.86.9-2.55,1.33-2.88,2.56-5.2,3.64-6.89,1.16-1.8,2.12-2.88,2.95-3.32.18-.1.39-.09.57.02l1.62,1c.12-.08.25-.19.4-.3.21-.17.42-.44.63-.82.12-.21.28-.36.46-.41,2.1-.61,4.23-1.22,6.38-1.83.05-.01.1-.02.15-.02,6.95,0,8.67,1.37,9.36,2.41,1.76,2.63,3.25,2.15,4.48-.79.8-1.91,1.52-4.93,2.15-8.98.25-1.64.16-2.99-.28-4.12-.43-1.08-1.26-1.95-2.46-2.57-.74.1-1.48.09-2.56-.02-.77-.2-1.31-.33-1.72-.42-.65-.14-.94-.19-1.5.02-.33.13-.72.25-1.16.38-.67.08-1.37.22-2.18.46-.95.14-1.86.25-2.8.34-.95.09-1.89.17-2.83.23-1.83.33-3.51,1.23-4.95,2.67-1.57,1.57-3.25,3.08-5,4.49-.73.82-1.46,1.62-2.09,2.29-.63.68-1.19,1.26-1.67,1.75-1.13.92-1.97,1.59-2.59,2.08-.53.41-.93.74-1.2.97-.56.96-1.05,1.83-1.47,2.6-.44.81-.81,1.49-1.09,2.03-.27.43-.62.8-1.16,1.3-1.01,1.35-2.03,2.9-2.91,4.49-.86,1.55-1.55,3.19-2.03,4.9-3.13,10.21-6.21,20.32-9.23,30.38Z"/>
  </g>
  <g>
    <path class="cls-10" d="m235.78,262.57h-1.39c-.97,0-1.71-.43-2.25-1.28-.53-.86-.78-2.19-.74-4.02,0-.55.1-1.57.29-3.06.19-1.49.47-3.49.86-5.98.16-1.04.35-2.65.56-4.84.22-2.19.4-3.81.56-4.84.06-.37.2-1.01.45-1.92.24-.91.5-2.16.79-3.75.3-1.46.66-3.23,1.05-5.3.22-1.95.37-3.87.46-5.76.78-3.23,1.6-6.52,2.48-9.87.11-.49.22-1.37.32-2.65.1-1.28.18-2.13.24-2.56.07-.43.23-1.05.5-1.87.27-.82.44-1.48.51-1.96.09-.61.1-1.1.01-1.46-.09-.37-.27-.55-.55-.55-.22.12-.47.26-.76.41-.29.15-.58.32-.89.5-.25.06-.57.18-.96.37-.39.18-.87.4-1.43.64l-.46-.55-.04-.91c.51-.97,1.03-1.92,1.55-2.83.52-.91,1.01-1.83,1.48-2.74.48-.79,1.03-1.49,1.65-2.1.62-.61,1.25-1.22,1.91-1.82.5-.37,1.02-1.34,1.56-2.92.54-1.58,1.13-3.89,1.76-6.94.69-3.47,1.31-6.3,1.85-8.49.54-2.19.97-3.68,1.29-4.47.27-.73.62-1.67,1.04-2.83.06-.37.08-.94.08-1.73,0-.79.02-1.34.07-1.64.71-2.8,1.41-5.5,2.09-8.12,1.06-3.77,2.64-7.54,4.75-11.32,2.11-3.77,4.76-7.73,7.97-11.86,3.26-3.95,7.54-6.81,12.84-8.58.53.18,1.01.37,1.42.55l2.16-1.1c.2,0,.44.09.71.27.27.18.62.46,1.05.82.99-.43,1.84-.73,2.55-.91.71-.18,1.27-.27,1.67-.27,2.49,0,4.28.5,5.35,1.51,1.07,1,1.45,2.54,1.13,4.61-.18,1.16-.43,2.47-.75,3.93-.33,1.46-.74,3.05-1.24,4.75-.63,2.25-1.21,3.94-1.74,5.07-.54,1.13-1.03,1.75-1.49,1.87-.93-.73-1.89-1.41-2.88-2.05-.99-.64-2.01-1.32-3.06-2.05l-2.37,1.28c-.67-.12-1.39-.27-2.16-.46-.68,0-1.47.11-2.37.32-.9.21-1.84.5-2.82.87-2.67.91-4.34,2.18-4.99,3.79-.65,1.61-1.67,3.79-3.05,6.53-.42.61-1.31,3.07-2.67,7.4-1.37,4.32-3.25,10.47-5.64,18.45-.1.36-.35,1-.75,1.92-.4.91-.65,1.68-.74,2.28-.13.85-.13,1.51,0,1.96.13.46.35.72.67.78.67-.43,1.56-.9,2.66-1.41,1.1-.52,2.43-1.08,3.97-1.69,1.32-.24,2.67-.56,4.04-.96,1.37-.4,2.8-.9,4.3-1.51h3.62c1.42-.37,2.87-.73,4.33-1.1,2.33,0,4,.5,5.02,1.51,1.01,1,1.38,2.42,1.1,4.24-.06.37-.23,1.29-.52,2.79-.29,1.49-.69,3.49-1.19,5.98-.74,1.4-1.5,2.83-2.29,4.29-.36,0-1.25-.23-2.67-.68-1.42-.46-3.42-1.14-6.02-2.05-1.02.37-2.11.66-3.27.87-1.16.21-2.34.32-3.55.32-.76,0-1.89.18-3.37.55-1.48.37-2.61.58-3.39.64-.62.61-1.22,1.05-1.8,1.32-.59.27-1.14.41-1.66.41-.28,0-.89-.09-1.83-.27-.52,0-1.14.72-1.84,2.15-.7,1.43-1.46,3.64-2.28,6.62l-1.21,3.93v2.83s-2.83,10.87-2.83,10.87c-.07.43-.11.93-.14,1.51-.03.58-.09,1.17-.18,1.78-1.27,4.87-2.37,9.63-3.31,14.29-.94,4.66-1.76,9.3-2.47,13.92-.15.97-.45,2.01-.9,3.1-.45,1.1-1.06,2.19-1.83,3.29Z"/>
    <path class="cls-4" d="m235.78,263.79h-1.39c-1.19,0-2.14-.56-2.83-1.66-.69-1.1-1.01-2.75-.96-4.9,0-.6.1-1.67.3-3.25.19-1.5.48-3.51.86-6.03.15-.99.34-2.59.55-4.75.22-2.24.41-3.86.57-4.94.07-.43.22-1.12.48-2.09.23-.87.48-2.09.76-3.62.31-1.5.66-3.26,1.06-5.32.19-1.77.34-3.67.43-5.5,0-.11.02-.22.05-.33.78-3.23,1.61-6.56,2.49-9.9.04-.18.15-.79.26-2.34.1-1.33.18-2.21.26-2.69.08-.53.26-1.22.56-2.14.3-.92.41-1.43.45-1.7.02-.12.03-.23.04-.32l-.28.15c-.28.15-.56.31-.87.49-.05.03-.11.05-.17.07-.22.05-.5.17-.85.33-.4.18-.88.4-1.44.65-.25.11-.52.03-.73-.22l-.46-.55c-.18-.21-.29-.53-.3-.88l-.04-.91c-.01-.3.05-.6.17-.84.52-.99,1.04-1.94,1.57-2.87.51-.89.99-1.79,1.45-2.68.58-.95,1.18-1.72,1.85-2.38.62-.61,1.27-1.23,1.93-1.84.22-.17.64-.63,1.27-2.44.52-1.51,1.09-3.77,1.7-6.73.69-3.46,1.32-6.34,1.86-8.55.56-2.28,1-3.82,1.36-4.69.24-.65.57-1.53.96-2.61.02-.21.05-.61.05-1.31,0-.9.03-1.51.09-1.92.74-2.97,1.44-5.68,2.13-8.3,1.09-3.89,2.74-7.81,4.89-11.66,2.13-3.81,4.84-7.84,8.07-12.01,3.36-4.08,7.8-7.04,13.19-8.84.11-.04.24-.04.35,0,.45.15.86.31,1.23.46l1.92-.98c.38-.19.81,0,1.29.32.22.15.5.36.83.63.88-.37,1.66-.64,2.32-.81.76-.2,1.35-.29,1.81-.29,2.67,0,4.56.55,5.78,1.69.96.9,2,2.65,1.49,5.93-.18,1.19-.44,2.51-.77,4.04-.33,1.49-.76,3.13-1.27,4.86-.65,2.34-1.25,4.08-1.82,5.28-.67,1.41-1.33,2.18-2.01,2.36-.17.05-.35,0-.51-.12-.92-.72-1.87-1.4-2.83-2.02-.9-.58-1.83-1.2-2.78-1.86l-2.06,1.11c-.12.06-.24.08-.37.06-.67-.12-1.4-.28-2.19-.46-.51.01-1.27.12-2.12.32-.88.21-1.81.49-2.75.85-3.05,1.04-4.13,2.34-4.49,3.24-.66,1.64-1.71,3.87-3.1,6.64-.2.31-.74,1.35-2.59,7.18-1.37,4.34-3.26,10.53-5.63,18.42-.06.24-.23.78-.81,2.09-.43.98-.58,1.56-.63,1.88-.1.63-.08.96-.06,1.11.63-.37,1.41-.78,2.36-1.23,1.12-.52,2.45-1.09,4.01-1.7,1.41-.27,2.75-.59,4.09-.98,1.34-.39,2.77-.89,4.25-1.49.07-.03.14-.04.21-.04h3.62c1.29-.35,2.73-.71,4.2-1.08,2.68-.06,4.43.54,5.59,1.69,1.3,1.29,1.8,3.21,1.44,5.55-.06.37-.23,1.32-.53,2.85-.29,1.49-.69,3.49-1.19,5.99-.03.15-.08.28-.14.41-.74,1.4-1.5,2.84-2.29,4.3-.15.28-.38.45-.63.45-.27,0-.86-.07-2.84-.71-1.39-.45-3.34-1.11-5.85-2-1,.34-2.06.62-3.17.83-1.18.22-2.4.33-3.65.33-.72,0-1.81.18-3.24.53-1.4.35-2.47.56-3.26.63-.61.58-1.22,1.01-1.82,1.29-.66.31-1.3.47-1.9.47-.2,0-.63-.03-1.92-.28.03.02-.35.14-1.1,1.66-.66,1.34-1.39,3.48-2.19,6.36l-1.15,3.73v2.56c-.01.15-.03.3-.07.44l-2.81,10.86c-.02.2-.06.65-.09,1.15-.03.64-.1,1.3-.2,1.97-1.29,5-2.4,9.77-3.32,14.37-.92,4.6-1.75,9.26-2.45,13.85-.17,1.09-.5,2.26-1,3.47-.49,1.18-1.15,2.37-1.97,3.53-.15.21-.35.33-.55.33Zm1.44-41.72c-.09,1.86-.25,3.77-.46,5.7-.42,2.22-.78,4-1.08,5.46-.28,1.57-.55,2.88-.81,3.83-.29,1.11-.38,1.57-.41,1.74-.15,1-.34,2.6-.55,4.75-.22,2.25-.41,3.87-.57,4.94-.38,2.47-.66,4.46-.85,5.94-.24,1.85-.27,2.57-.27,2.84-.03,1.51.14,2.57.52,3.18.38.6.92.89,1.66.89h1.06c.61-.91,1.1-1.82,1.47-2.71.4-.98.67-1.9.8-2.74.71-4.64,1.55-9.35,2.48-14,.94-4.66,2.06-9.5,3.33-14.38.05-.37.1-.9.13-1.42.03-.65.09-1.21.16-1.69l2.79-10.82v-2.6c.01-.18.04-.35.09-.51l1.21-3.93c.84-3.06,1.62-5.31,2.37-6.83.88-1.8,1.67-2.64,2.49-2.64,1.28.24,1.69.27,1.83.27.44,0,.92-.12,1.42-.36.51-.24,1.05-.64,1.6-1.18.12-.12.26-.19.4-.2.73-.06,1.84-.27,3.3-.62,1.51-.37,2.69-.56,3.5-.56,1.18,0,2.34-.1,3.45-.31,1.12-.21,2.19-.49,3.18-.84.12-.04.25-.05.37,0,2.59.91,4.59,1.6,6,2.05,1.16.37,1.8.54,2.14.61.66-1.22,1.3-2.42,1.92-3.6.48-2.38.86-4.3,1.14-5.74.28-1.45.45-2.36.51-2.71.2-1.32-.03-2.23-.75-2.95-.87-.87-2.41-1.31-4.58-1.31-1.33.35-2.77.71-4.2,1.08l-3.65.02c-1.48.59-2.91,1.1-4.26,1.48-1.38.4-2.76.73-4.09.97-1.42.57-2.73,1.13-3.83,1.64-1.08.51-1.95.97-2.59,1.37-.13.08-.27.11-.41.09-.6-.11-1.06-.65-1.31-1.5-.2-.7-.22-1.6-.05-2.72.12-.76.4-1.64.86-2.68.5-1.14.63-1.56.67-1.7,2.38-7.95,4.28-14.17,5.66-18.52,1.87-5.92,2.5-7.25,2.84-7.75,1.28-2.56,2.29-4.72,2.93-6.29.77-1.93,2.57-3.35,5.5-4.35.97-.36,1.94-.66,2.87-.88.94-.22,1.78-.33,2.5-.33.81.18,1.47.32,2.07.43l2.19-1.18c.2-.11.42-.09.61.04,1.05.73,2.06,1.41,3.04,2.04.88.57,1.76,1.19,2.61,1.85.17-.16.43-.5.79-1.25.49-1.04,1.05-2.67,1.65-4.83.5-1.69.91-3.25,1.22-4.66.32-1.43.56-2.72.73-3.81.31-1.99-.25-2.81-.77-3.29-.94-.88-2.6-1.32-4.93-1.32-.36,0-.87.09-1.54.26-.68.17-1.51.47-2.47.88-.21.09-.43.05-.62-.11-.4-.34-.72-.6-.98-.77-.13-.09-.23-.13-.29-.15l-2,1.01c-.16.08-.32.08-.48.01-.36-.16-.76-.31-1.2-.47-5.07,1.72-9.22,4.5-12.33,8.28-3.14,4.05-5.79,8-7.86,11.7-2.05,3.66-3.6,7.36-4.63,11.01-.67,2.58-1.37,5.28-2.08,8.08.03-.08-.02.27-.02,1.21,0,.91-.03,1.54-.11,2.01-.02.11-.04.21-.08.31-.42,1.16-.77,2.11-1.04,2.84-.22.54-.59,1.68-1.24,4.3-.53,2.16-1.15,4.99-1.83,8.42-.65,3.15-1.24,5.49-1.82,7.15-.63,1.84-1.26,2.97-1.93,3.46-.58.54-1.21,1.15-1.82,1.75-.56.55-1.06,1.19-1.5,1.91-.42.84-.92,1.78-1.46,2.71-.37.64-.73,1.29-1.09,1.97.23-.1.43-.2.62-.28.39-.18.71-.31.98-.38.29-.17.57-.33.84-.47l.75-.41c.09-.05.18-.07.28-.07.62,0,1.11.51,1.31,1.36.14.61.14,1.31.01,2.15-.09.58-.28,1.31-.57,2.23-.31.96-.41,1.42-.44,1.61-.03.22-.11.82-.23,2.42-.11,1.41-.22,2.34-.36,2.92-.86,3.31-1.68,6.56-2.44,9.72Z"/>
  </g>
  <g>
    <path class="cls-5" d="m735.68,116.25c.84,5.3,1.23,8.1,1.18,8.4-1,1.28-2.31,2.71-3.92,4.29-1.61,1.58-3.55,3.38-5.83,5.39-2.43,2.19-4.43,3.78-6.01,4.75-1.58.97-2.75,1.46-3.51,1.46-1.65,0-3.03-.64-4.14-1.92-1.11-1.28-1.92-3.29-2.42-6.03-.07-.37-.13-.78-.2-1.23-.07-.46-.17-.93-.3-1.41-.78-1.46-1.52-2.92-2.22-4.38-.33-.73-.91-2.48-1.73-5.25-.82-2.77-1.81-6.56-2.96-11.37-.5-2.25-1.05-4.53-1.66-6.85-.61-2.31-1.26-4.66-1.94-7.03-.38.61-.9,2.03-1.59,4.25-.68,2.22-1.48,5.25-2.39,9.08-.09.61-.38,1.61-.85,3.01-.48,1.4-.77,2.43-.87,3.1-.05.3-.07.81-.08,1.51,0,.7-.03,1.2-.08,1.51-.3,1.95-.93,4.9-1.9,8.86-.97,3.96-1.6,6.91-1.9,8.86-.24,1.58-.59,2.74-1.05,3.47-.45.73-1.08,1.09-1.89,1.09-.83-.12-1.46-.3-1.91-.55-.64.24-1.23.43-1.77.55-.44,0-.73-.41-.87-1.23-.14-.82-.07-2.11.2-3.88.09-.61.34-1.58.75-2.92.41-1.34.67-2.37.78-3.1.07-.49.13-1.26.18-2.33.04-1.06.1-1.84.18-2.33.07-.49.4-2.01.97-4.56.57-2.56,1.43-6.24,2.57-11.05,1.12-4.93,2.04-8.83,2.76-11.69.72-2.86,1.19-4.6,1.4-5.21.19-.43.43-.94.72-1.55.29-.61.55-1.34.76-2.19l-.11-5.2c.75-2.8,1.78-6.92,3.08-12.37,1.3-5.45,2.9-12.31,4.82-20.59,1.11-4.87,1.97-8.64,2.58-11.32.61-2.68.97-4.2,1.06-4.56.95-2.5,2.13-4.58,3.55-6.25,1.42-1.67,3.1-2.94,5.05-3.79.28-.24.62-.58,1.03-1,.41-.43.89-.91,1.46-1.46.54-.12,1.04.97,1.49,3.29.45,2.31.59,4.02.42,5.11-.07.49-.22,1.14-.42,1.96s-.51,1.78-.92,2.88c-.49,1.34-.88,2.43-1.17,3.29-.29.85-.48,1.43-.57,1.73-1.16,3.35-2.53,7.55-4.11,12.6-1.58,5.05-3.38,11.02-5.4,17.9-.17.55-.36,1.23-.59,2.05-.23.82-.55,1.81-.97,2.97-.32,1.04-.61,1.98-.86,2.83-.25.85-.42,1.58-.52,2.19-.12.79-.06,1.68.2,2.65,1.31-.67,3.62-3.17,6.94-7.49,3.32-4.32,7.67-10.38,13.05-18.18,5.48-7.92,9.66-14.36,12.56-19.33,2.89-4.97,4.5-8.45,4.8-10.46.11-.73-.06-1.66-.51-2.79-.45-1.13-.61-2.09-.49-2.88.24-1.58.92-2.89,2.05-3.95,1.13-1.06,2.71-1.87,4.76-2.41.41-.06,1.11-.59,2.11-1.59,1-1,1.79-1.5,2.4-1.5.57.18,1.12.3,1.63.36.77-.54,1.52-1.12,2.25-1.73.47.91.76,1.93.85,3.06.09,1.13.03,2.42-.2,3.88-.45,2.92-1.07,5.49-1.88,7.72-.8,2.22-1.79,4-2.96,5.34-.34.37-.7.79-1.1,1.28-.4.49-.8,1.04-1.22,1.64-.96,2.07-2.2,4.35-3.7,6.85-1.51,2.5-3.28,5.24-5.3,8.22-4.45,6.45-8.49,12.11-12.14,16.98-3.64,4.87-6.88,8.95-9.72,12.23-1.18,1.4-2.09,2.6-2.72,3.61-.64,1-1.01,1.87-1.12,2.6.38,2.01.69,3.87.96,5.57.42,3.53.91,6.97,1.46,10.32.55,3.35,1.09,6.73,1.61,10.14.98,5.11,2.04,8.93,3.16,11.46,1.12,2.53,2.3,3.79,3.55,3.79.2,0,.86-.35,1.97-1.05,1.11-.7,2.59-1.69,4.44-2.97.48-.79,1.4-1.75,2.76-2.88,1.36-1.13,2.09-1.87,2.18-2.24Z"/>
    <path class="cls-19" d="m717.59,141.76c-1.82,0-3.38-.73-4.63-2.17-1.25-1.44-2.16-3.68-2.71-6.67-.07-.38-.14-.81-.21-1.28-.05-.35-.13-.71-.22-1.08-.77-1.44-1.49-2.88-2.17-4.28-.38-.83-.96-2.61-1.81-5.47-.82-2.78-1.83-6.63-2.98-11.45-.49-2.22-1.05-4.51-1.65-6.81-.43-1.62-.87-3.25-1.33-4.9-.19.55-.43,1.26-.71,2.17-.67,2.16-1.46,5.19-2.36,8.98-.08.58-.37,1.63-.89,3.16-.55,1.62-.74,2.43-.8,2.82-.02.1-.05.42-.06,1.25,0,.8-.04,1.36-.1,1.76-.31,2-.96,5.03-1.93,9.01-.95,3.9-1.58,6.83-1.87,8.71-.28,1.81-.68,3.13-1.24,4.03-.61.98-1.44,1.48-2.48,1.48-.83-.12-1.45-.28-1.94-.5-.58.21-1.13.37-1.63.49-.48.04-1.45-.2-1.77-2.15-.17-1.02-.1-2.47.2-4.45.11-.71.37-1.74.8-3.15.38-1.27.63-2.23.72-2.87.05-.29.11-.9.16-2.12.05-1.14.11-1.97.2-2.53.03-.19.12-.79.99-4.68.57-2.56,1.43-6.25,2.57-11.07,1.14-5.04,2.05-8.88,2.77-11.71.74-2.93,1.21-4.68,1.44-5.34.23-.54.48-1.07.78-1.7.22-.46.42-1.02.6-1.68l-.1-4.96c0-.17.02-.34.06-.5.73-2.74,1.77-6.89,3.06-12.33,1.3-5.44,2.9-12.3,4.81-20.58l2.58-11.32c.62-2.71.98-4.25,1.08-4.62,1.04-2.77,2.31-5,3.81-6.76,1.47-1.73,3.23-3.06,5.22-3.96.25-.22.54-.52.89-.88.41-.43.91-.93,1.48-1.49.1-.09.2-.15.32-.18,1.48-.33,2.14,2.92,2.38,4.15.49,2.55.64,4.42.43,5.73-.08.54-.23,1.23-.45,2.12-.22.87-.55,1.9-.97,3.04-.48,1.32-.87,2.4-1.15,3.25-.28.81-.46,1.36-.54,1.66-1.17,3.38-2.54,7.61-4.12,12.64-1.57,5.03-3.39,11.04-5.39,17.87-.17.55-.36,1.22-.58,2.03-.24.87-.58,1.91-1.01,3.09-.3.96-.58,1.9-.83,2.74-.23.78-.39,1.45-.47,1.97-.03.2-.04.42-.04.65,1.05-.87,2.84-2.75,5.86-6.7,3.3-4.3,7.68-10.41,13.01-18.14,5.44-7.86,9.64-14.34,12.51-19.25,3.48-5.96,4.43-8.69,4.62-9.93.03-.18.04-.73-.41-1.88-.56-1.4-.76-2.67-.59-3.79.29-1.9,1.1-3.48,2.41-4.72,1.23-1.15,2.88-2,5.05-2.58.13-.02.54-.14,1.81-1.41,1.14-1.15,2.07-1.7,2.84-1.7.06,0,.11,0,.17.03.46.15.91.25,1.32.31.68-.49,1.35-1.01,2.01-1.56.35-.28.78-.15,1.02.32.56,1.09.9,2.32,1.02,3.66.1,1.26.03,2.71-.21,4.31-.46,3.02-1.12,5.72-1.96,8.03-.86,2.37-1.93,4.29-3.18,5.73-.34.37-.7.78-1.08,1.25-.36.45-.73.94-1.11,1.49-.97,2.07-2.22,4.38-3.73,6.88-1.52,2.51-3.31,5.3-5.34,8.27-4.43,6.43-8.53,12.16-12.17,17.02-3.64,4.87-6.93,9-9.76,12.29-1.14,1.36-2.03,2.53-2.63,3.48-.54.85-.77,1.43-.86,1.78.35,1.89.65,3.65.9,5.27.43,3.56.92,7.01,1.46,10.3.55,3.36,1.09,6.74,1.62,10.15.95,4.91,1.97,8.64,3.04,11.05.96,2.16,1.92,3.25,2.88,3.25,0,0,.32-.11,1.66-.95,1.08-.68,2.5-1.63,4.27-2.85.57-.85,1.5-1.81,2.85-2.93,1.55-1.29,1.84-1.72,1.88-1.79.13-.5.43-.72.78-.68.35.04.61.51.7,1.03,1.3,8.22,1.25,8.57,1.18,8.96-.04.25-.13.48-.27.65-1.02,1.31-2.37,2.78-4,4.38-1.61,1.58-3.59,3.41-5.87,5.42-2.45,2.21-4.51,3.83-6.11,4.82-1.69,1.04-2.94,1.55-3.82,1.55Zm-17.58-47.92s.09,0,.14.02c.27.07.5.34.6.72.68,2.39,1.33,4.74,1.95,7.07.62,2.35,1.18,4.67,1.68,6.91,1.13,4.73,2.12,8.53,2.93,11.25.99,3.35,1.45,4.6,1.66,5.06.67,1.4,1.41,2.85,2.18,4.31.05.1.09.21.12.32.14.54.25,1.07.33,1.58.07.44.13.84.2,1.19.45,2.46,1.17,4.27,2.13,5.38.97,1.12,2.17,1.67,3.65,1.67.45,0,1.37-.24,3.21-1.37,1.53-.94,3.51-2.51,5.9-4.67,2.27-2,4.22-3.8,5.81-5.36,1.4-1.38,2.58-2.65,3.51-3.79-.08-.67-.28-2.21-.83-5.71-.33.32-.76.69-1.31,1.14-1.59,1.32-2.27,2.16-2.56,2.63-.07.12-.16.21-.26.28-1.86,1.29-3.34,2.28-4.46,2.98-1.67,1.06-2.04,1.14-2.28,1.14-1.53,0-2.95-1.46-4.22-4.33-1.16-2.62-2.26-6.59-3.26-11.8-.53-3.47-1.07-6.84-1.62-10.18-.55-3.34-1.05-6.83-1.47-10.39-.25-1.63-.57-3.47-.94-5.46-.04-.2-.04-.41,0-.61.15-.95.58-1.99,1.33-3.17.66-1.05,1.58-2.27,2.81-3.72,2.82-3.26,6.07-7.36,9.68-12.19,3.62-4.84,7.7-10.55,12.11-16.95,1.99-2.93,3.77-5.68,5.27-8.16,1.48-2.45,2.71-4.72,3.64-6.73.03-.06.06-.12.1-.17.43-.63.86-1.2,1.27-1.72.41-.5.79-.95,1.14-1.33,1.06-1.21,1.98-2.87,2.72-4.93.76-2.12,1.37-4.61,1.8-7.41.2-1.31.26-2.47.18-3.45-.05-.57-.15-1.1-.32-1.6-.54.42-1.08.83-1.64,1.23-.13.09-.26.13-.4.11-.51-.06-1.06-.18-1.64-.35-.28.03-.85.26-1.88,1.29-1.15,1.15-1.91,1.7-2.48,1.79-1.88.5-3.39,1.26-4.42,2.23-.95.89-1.5,1.93-1.69,3.19-.07.46.07,1.14.4,1.97.57,1.43.77,2.63.61,3.7-.34,2.24-1.97,5.83-4.99,11-2.89,4.97-7.14,11.49-12.6,19.4-5.35,7.76-9.75,13.89-13.07,18.23-3.43,4.47-5.79,7-7.21,7.72-.4.21-.85-.1-1.01-.71-.31-1.2-.39-2.34-.23-3.37.1-.68.29-1.47.57-2.41.26-.86.54-1.81.87-2.85.42-1.17.74-2.13.96-2.92.23-.83.43-1.53.6-2.09,2.01-6.83,3.83-12.86,5.4-17.91,1.58-5.06,2.97-9.32,4.12-12.64.06-.23.26-.84.57-1.73.29-.86.69-1.96,1.18-3.31.39-1.05.69-1.97.88-2.72.19-.75.32-1.36.39-1.81.09-.6.1-1.87-.41-4.49-.27-1.37-.49-1.99-.62-2.26-.41.4-.77.77-1.09,1.1-.43.45-.79.8-1.09,1.06-.06.05-.11.09-.18.11-1.83.8-3.44,2.01-4.77,3.58-1.33,1.57-2.46,3.55-3.35,5.9-.05.21-.4,1.71-1,4.36l-2.58,11.32c-1.92,8.29-3.52,15.16-4.82,20.61-1.29,5.39-2.28,9.38-3.02,12.18l.1,4.95c0,.16-.01.32-.05.47-.24.96-.53,1.79-.86,2.48-.29.59-.52,1.09-.7,1.5-.1.29-.45,1.48-1.32,4.97-.71,2.81-1.61,6.62-2.75,11.65-1.14,4.82-2,8.49-2.57,11.05-.74,3.28-.91,4.19-.95,4.45-.05.29-.11.9-.16,2.13-.04,1.13-.11,1.96-.2,2.53-.12.8-.39,1.9-.83,3.34-.47,1.56-.64,2.32-.7,2.69-.31,2.05-.26,2.95-.21,3.3.04.26.09.33.09.33.39-.13.96-.3,1.57-.53.16-.06.32-.05.47.04.38.21.96.37,1.71.48.5,0,.93-.24,1.22-.71.35-.56.64-1.57.85-2.91.31-2.01.94-4.95,1.93-9,.95-3.88,1.58-6.81,1.87-8.71.02-.09.05-.42.06-1.25,0-.81.04-1.37.1-1.77.12-.78.43-1.88.94-3.39.55-1.63.73-2.38.78-2.73.95-4.01,1.76-7.1,2.45-9.32.96-3.14,1.45-4.11,1.73-4.57.15-.25.37-.39.59-.39Z"/>
  </g>
  <g>
    <path class="cls-20" d="m424.77,157.99c-.13,1.17.34,2.63,1.41,4.38,1.07,1.75,2.73,3.84,4.99,6.28,1.47,1.54,3,3.02,4.59,4.45,1.59,1.43,3.17,2.88,4.74,4.34.68.69,1.55,1.6,2.63,2.71,1.07,1.11,2.33,2.42,3.76,3.9,1.04.98,2.15,1.94,3.3,2.9,1.16.96,2.42,1.9,3.78,2.82.88.83,1.87,1.73,2.96,2.7,1.09.97,2.35,2,3.78,3.08.83.55,1.38,1.71,1.68,3.47.29,1.76.32,4.1.08,7.02l-.87,2.39-.73.55c-.45.08-1.02-.07-1.71-.45-.69-.37-1.55-.94-2.57-1.68-.21-.14-1.16-.61-2.87-1.42-1.71-.81-4.16-1.95-7.37-3.43-1.78-.74-3.39-1.63-4.82-2.69-1.44-1.05-2.73-2.2-3.87-3.45-.67-.75-1.55-1.55-2.63-2.41-1.08-.85-2.37-1.76-3.86-2.72-1.54-.95-2.85-1.88-3.95-2.79-1.1-.91-1.96-1.68-2.6-2.33-2.15-2.17-3.92-3.8-5.31-4.89-1.39-1.09-2.37-1.59-2.96-1.49-.54.9-.89,1.79-1.03,2.67-.85,2.85-1.81,6.42-2.89,10.71-1.08,4.3-2.29,9.29-3.64,14.99-.11,1-.33,1.77-.66,2.31-.33.54-.76.86-1.3.95-1.76.3-3.04-.04-3.81-1-.78-.96-1.05-2.56-.8-4.79.33-2.99.83-6.15,1.49-9.49.66-3.33,1.53-6.88,2.62-10.63.4-1.62.73-3.07.99-4.35.25-1.28.44-2.45.56-3.5.3-2.7-.33-4.86-1.9-6.5-1.57-1.64-2.31-2.87-2.22-3.69.14-1.29.42-2.44.82-3.46.4-1.02.93-1.87,1.58-2.55,1.63-1.48,3.14-2.88,4.53-4.21.34-.29.6-.72.78-1.29.17-.58.32-1.36.43-2.36.07-.59.14-1.21.21-1.89.08-.67.15-1.3.21-1.89.72-5.23,1.44-10.67,2.15-16.31.05-.41.12-1.05.22-1.93.1-.88.18-2.01.25-3.4.03-1.04.11-2.02.26-2.93.15-.92.26-1.75.35-2.51-.14-1.13-.26-2.1-.37-2.91-.11-.82-.12-1.6-.04-2.36.08-.7.25-1.81.5-3.32.26-1.51.42-2.58.49-3.23.09-.82.16-1.95.21-3.4.05-1.45.12-2.55.2-3.31.24-2.11.83-4.19,1.8-6.25.96-2.06,2.32-4.15,4.06-6.28,1.68-1.89,3.34-3.39,4.99-4.5,1.65-1.11,3.3-1.8,4.92-2.08.77-.13,1.9-.25,3.4-.35,1.5-.11,2.68-.23,3.54-.38.59-.1,2.12.28,4.6,1.13,1.03-.06,1.94-.05,2.73.02.79.07,1.42.18,1.89.33,1.05.51,1.87.91,2.46,1.18.59.27,1.02.42,1.28.43.73.22,1.36.4,1.9.54.54.14.97.35,1.29.65.55.25,1.19.55,1.93.88.74.34,1.57.71,2.5,1.13,1.51.78,2.9,1.76,4.17,2.92,1.27,1.17,2.44,2.46,3.52,3.89,1.21,1.87,2.07,3.75,2.56,5.65.5,1.9.64,3.84.41,5.84-.07.59-.19,1.43-.38,2.52-.19,1.1-.45,2.33-.78,3.71-.33,1.72-1.21,3.67-2.65,5.83-1.44,2.17-3.44,4.62-6.01,7.34-2.26,2.39-4.35,4.42-6.27,6.09-1.92,1.67-3.65,2.93-5.21,3.76-.65.63-1.16,1.2-1.52,1.72-.52.66-1.56,1.64-3.12,2.94-1.57,1.3-3.68,2.94-6.34,4.94-4.84,3.63-8.26,6.05-10.26,7.28s-3.06,2.37-3.18,3.42Zm-2.39-41.15c.95-.96,1.85-1.91,2.71-2.83.86-.92,1.9-1.48,3.12-1.69.54-.09,1.12.57,1.74,1.99.62,1.42.88,2.51.8,3.27-.05.41-.26,1.37-.65,2.87-.39,1.5-.97,3.55-1.75,6.15-1.67,5.85-2.66,9.51-2.96,10.97-.3,1.46-.84,3.75-1.63,6.87-.27.79-.56,1.82-.88,3.08-.06.53-.02.89.11,1.1.13.21.33.29.6.24,9.65-7.36,14.65-11.19,14.99-11.48.37-.18.78-.4,1.21-.68.43-.27.84-.56,1.23-.85l1.2-1.84c2.86-2.6,5.83-5.37,8.91-8.3,1.96-2.05,3.46-4,4.51-5.84,1.05-1.84,1.67-3.61,1.86-5.31.24-2.17-.49-4.14-2.2-5.92-1.71-1.78-4.4-3.31-8.07-4.6-3.11-1.14-5.98-1.88-8.6-2.22s-5.05-.32-7.26.05c-2.89.49-5.15,1.51-6.77,3.07-1.62,1.56-2.57,3.63-2.86,6.21-.22,1.99-.28,3.48-.17,4.47.11.99.38,1.39.8,1.2Z"/>
    <path class="cls-18" d="m460.95,210.12c-.62.1-1.33-.07-2.18-.52-.73-.4-1.63-.98-2.67-1.74-.04-.03-.44-.26-2.74-1.34-1.71-.81-4.16-1.95-7.36-3.42-1.8-.75-3.48-1.68-4.96-2.77-1.47-1.08-2.82-2.28-4-3.57-.65-.72-1.49-1.5-2.52-2.31-1.05-.83-2.33-1.73-3.79-2.67-1.54-.95-2.9-1.91-4.03-2.85-1.14-.95-2.01-1.73-2.67-2.38-2.12-2.13-3.88-3.75-5.23-4.82-1.07-.84-1.7-1.16-2.04-1.27-.28.56-.47,1.12-.56,1.65-.88,3-1.85,6.59-2.92,10.84-1.1,4.38-2.32,9.41-3.63,14.96-.1,1.04-.38,1.98-.81,2.7-.48.8-1.15,1.29-1.94,1.43-2.04.34-3.57-.1-4.55-1.3-.98-1.21-1.34-3.14-1.05-5.74.34-3.03.85-6.26,1.51-9.61.67-3.36,1.56-6.97,2.65-10.75.38-1.55.71-2.97.96-4.23.25-1.24.43-2.38.54-3.38.26-2.3-.27-4.1-1.6-5.49-1.91-1.99-2.67-3.4-2.52-4.7.16-1.41.46-2.7.91-3.82.46-1.17,1.08-2.16,1.83-2.95,1.68-1.52,3.18-2.92,4.56-4.24.22-.19.35-.42.46-.76.15-.49.27-1.19.38-2.1l.42-3.78c.72-5.26,1.44-10.7,2.16-16.33l.21-1.91c.09-.85.17-1.96.24-3.31.03-1.06.12-2.11.28-3.09.13-.82.24-1.58.32-2.28-.13-1.05-.25-1.96-.35-2.73-.12-.93-.14-1.84-.04-2.72.08-.72.25-1.85.52-3.4.25-1.47.41-2.52.48-3.15.09-.77.15-1.87.2-3.29.05-1.49.12-2.61.21-3.42.25-2.25.9-4.5,1.92-6.69,1-2.14,2.42-4.35,4.22-6.54,1.76-1.98,3.5-3.55,5.21-4.7,1.75-1.17,3.51-1.92,5.24-2.21.79-.13,1.96-.26,3.47-.36,1.47-.11,2.63-.23,3.47-.37.49-.08,1.48-.03,4.82,1.11,1.01-.05,1.91-.04,2.69.03.86.07,1.53.19,2.05.36,1.15.55,1.96.95,2.55,1.22.72.33.97.36,1.01.36.06,0,.12.01.17.03.72.22,1.34.4,1.87.53.61.16,1.11.4,1.52.74l4.33,1.97c1.61.83,3.07,1.86,4.38,3.07,1.3,1.2,2.53,2.55,3.64,4.01,1.32,2.02,2.23,4.04,2.76,6.06.54,2.06.69,4.2.45,6.35-.07.61-.2,1.48-.39,2.61-.19,1.12-.46,2.4-.8,3.8-.35,1.86-1.28,3.93-2.83,6.26-1.47,2.21-3.53,4.73-6.13,7.5-2.28,2.41-4.41,4.48-6.34,6.16-1.92,1.67-3.69,2.95-5.27,3.82-.55.54-.98,1.03-1.3,1.47-.61.78-1.68,1.79-3.31,3.15-1.56,1.29-3.7,2.96-6.38,4.97-4.83,3.62-8.31,6.09-10.33,7.33-2.47,1.51-2.63,2.4-2.64,2.5h0c-.07.59.1,1.68,1.24,3.54,1.03,1.68,2.67,3.74,4.87,6.12,1.43,1.5,2.96,2.98,4.53,4.39,1.6,1.44,3.18,2.89,4.75,4.35.71.72,1.59,1.63,2.66,2.74l3.76,3.9c1.02.95,2.11,1.91,3.23,2.83,1.14.94,2.39,1.87,3.71,2.77.98.91,1.96,1.8,3.05,2.76,1.07.95,2.33,1.97,3.73,3.04,1.02.68,1.73,2.1,2.07,4.18.31,1.89.34,4.3.1,7.37-.01.13-.04.25-.08.37l-.87,2.39c-.08.22-.21.41-.38.54l-.73.55c-.11.08-.24.14-.36.16Zm-44.69-32.02c.83-.14,1.93.37,3.55,1.65,1.41,1.11,3.22,2.78,5.39,4.96.61.61,1.44,1.35,2.54,2.27,1.07.89,2.37,1.8,3.85,2.72,1.52.98,2.84,1.91,3.93,2.78,1.11.88,2.03,1.72,2.74,2.52,1.09,1.19,2.35,2.31,3.74,3.32,1.37,1.01,2.94,1.89,4.66,2.59,3.24,1.49,5.7,2.63,7.41,3.44,2.6,1.23,2.86,1.4,2.97,1.47,1.01.74,1.84,1.29,2.51,1.65.53.29.88.36,1.08.37l.27-.2.68-1.86c.21-2.7.18-4.88-.08-6.48-.24-1.42-.65-2.34-1.24-2.73-1.48-1.12-2.77-2.17-3.87-3.15-1.1-.97-2.09-1.88-2.98-2.71-1.26-.84-2.55-1.8-3.73-2.78-1.14-.94-2.27-1.93-3.34-2.93l-3.79-3.94c-1.07-1.11-1.95-2.01-2.62-2.7-1.53-1.43-3.11-2.87-4.7-4.3-1.61-1.44-3.17-2.95-4.64-4.5-2.3-2.49-4.02-4.65-5.12-6.45-1.23-2.01-1.75-3.72-1.58-5.22.17-1.51,1.35-2.89,3.71-4.34,1.98-1.21,5.4-3.64,10.19-7.23,2.65-1.99,4.77-3.64,6.31-4.91,1.87-1.55,2.64-2.36,2.97-2.77.38-.53.93-1.16,1.62-1.83.06-.06.13-.11.21-.15,1.49-.8,3.18-2.02,5.04-3.64,1.88-1.64,3.97-3.67,6.2-6.03,2.51-2.67,4.49-5.09,5.89-7.19,1.34-2.01,2.16-3.8,2.45-5.33.34-1.41.59-2.63.78-3.69.18-1.06.3-1.87.37-2.44.2-1.8.07-3.59-.38-5.32-.46-1.76-1.27-3.54-2.41-5.3-1-1.31-2.15-2.58-3.37-3.7-1.2-1.11-2.55-2.05-3.98-2.8l-4.4-2c-.07-.03-.14-.08-.2-.13-.22-.2-.55-.36-.96-.46-.53-.14-1.15-.31-1.86-.53-.36-.04-.82-.2-1.45-.49-.59-.28-1.42-.67-2.48-1.19-.31-.09-.9-.19-1.64-.26-.74-.06-1.63-.07-2.63-.02-.09,0-.18,0-.27-.04-3.29-1.13-4.08-1.12-4.24-1.1-.88.15-2.09.28-3.6.39-1.46.1-2.58.22-3.33.35-1.51.25-3.06.91-4.6,1.94-1.58,1.06-3.19,2.51-4.8,4.33-1.65,2.01-2.96,4.04-3.87,5.99-.89,1.91-1.46,3.86-1.67,5.81-.08.72-.15,1.8-.19,3.2-.05,1.51-.13,2.65-.22,3.51-.07.66-.24,1.77-.51,3.31-.25,1.47-.41,2.55-.49,3.24-.07.64-.06,1.32.03,2.01.11.82.23,1.79.37,2.93.01.11.01.22,0,.34-.09.78-.21,1.64-.36,2.59-.14.85-.22,1.77-.24,2.73-.07,1.46-.16,2.63-.26,3.53l-.21,1.88c-.73,5.72-1.45,11.16-2.16,16.39l-.42,3.74c-.12,1.1-.28,1.95-.48,2.62-.25.82-.64,1.45-1.15,1.87-1.35,1.29-2.86,2.69-4.5,4.18-.49.52-.94,1.24-1.28,2.1-.35.89-.6,1.93-.73,3.09,0,0,.05.73,1.91,2.67,1.81,1.89,2.55,4.42,2.21,7.51-.12,1.08-.31,2.3-.58,3.62-.26,1.3-.59,2.77-1,4.42-1.08,3.75-1.95,7.28-2.6,10.56-.65,3.27-1.14,6.42-1.47,9.37-.21,1.85-.02,3.14.55,3.84.58.71,1.61.95,3.08.7.29-.05.5-.2.67-.48.22-.37.38-.98.47-1.75,1.34-5.74,2.57-10.79,3.67-15.18,1.08-4.29,2.06-7.92,2.91-10.78.13-.88.54-1.95,1.17-2.99.16-.26.38-.43.63-.47Zm7.41-28.09c-.79.13-1.22-.35-1.41-.64-.29-.45-.39-1.09-.29-1.95.36-1.49.67-2.56.94-3.38.77-3.04,1.3-5.27,1.59-6.69.31-1.52,1.28-5.14,2.98-11.08.77-2.58,1.36-4.63,1.74-6.12.5-1.95.6-2.51.61-2.66.03-.23,0-.94-.7-2.57-.57-1.32-.9-1.44-.9-1.44-1,.18-1.86.64-2.58,1.41-.86.93-1.78,1.88-2.73,2.85-.08.09-.18.15-.28.2-.4.18-.81.14-1.15-.11-.44-.33-.71-.97-.82-1.97-.12-1.1-.07-2.67.17-4.79.32-2.89,1.41-5.24,3.23-7,3.05-2.94,8.4-4.17,14.69-3.37,2.67.34,5.62,1.1,8.76,2.26,3.82,1.33,6.56,2.91,8.38,4.8,1.95,2.03,2.79,4.37,2.5,6.93-.21,1.88-.89,3.85-2.03,5.84-1.09,1.91-2.66,3.96-4.68,6.07-3.07,2.93-6.04,5.69-8.86,8.26l-1.12,1.72c-.07.11-.16.2-.25.27-.41.31-.84.61-1.29.89-.43.27-.83.5-1.2.68-.52.41-3.04,2.35-14.93,11.43-.11.08-.24.14-.37.16Zm4.45-38.82c1.41-.24,2.32,1.86,2.62,2.55.73,1.68,1.01,2.94.9,3.97-.04.33-.15.98-.69,3.07-.4,1.52-.99,3.61-1.77,6.2-1.65,5.77-2.64,9.42-2.92,10.84-.3,1.47-.84,3.74-1.65,6.93-.25.74-.49,1.58-.75,2.59,9.13-6.97,13.92-10.63,14.23-10.9.06-.05.13-.09.19-.13.35-.17.72-.37,1.11-.63.36-.23.7-.46,1.02-.7l1.09-1.67c.05-.08.11-.15.18-.22,2.84-2.58,5.83-5.37,8.9-8.28,1.85-1.94,3.31-3.83,4.31-5.58.95-1.67,1.52-3.28,1.69-4.78.2-1.76-.42-3.37-1.9-4.91-1.61-1.68-4.22-3.15-7.75-4.39-3.05-1.12-5.89-1.86-8.46-2.18-5.79-.74-10.73.34-13.36,2.88-1.42,1.37-2.23,3.14-2.49,5.42-.2,1.79-.26,3.14-.18,4.02.71-.73,1.39-1.44,2.05-2.15,1-1.07,2.21-1.73,3.61-1.97Z"/>
  </g>
  <g>
    <path class="cls-17" d="m314.01,114.71c1.73-.8,3.59-1.41,5.59-1.85,1.99-.44,4.17-.7,6.54-.79.44-.02,1.08.07,1.92.25.84.18,1.52.26,2.04.25.74.16,1.3.32,1.68.49.42.17,1,.36,1.73.58l1.77-.8c.35.05.72.26,1.1.65.38.38.84.81,1.38,1.27.36-.32.86-.7,1.51-1.15.6-.02,1.05.31,1.35,1,.3.69.44,1.67.41,2.96-.11.98-.23,1.94-.33,2.89-.11.95-.27,1.94-.47,2.99-.1.49-.17,1.25-.21,2.29-.04,1.04-.09,1.83-.16,2.38-.08.67-.24,1.17-.47,1.48-.24.31-.52.48-.84.49-1.53.06-3.01-.09-4.45-.43-1.44-.34-2.86-.88-4.25-1.62-1.33.41-2.49.73-3.47.95-.78.15-1.36.36-1.75.61-.39.26-.61.57-.65.94.11.42.28.87.5,1.35.22.48.51.93.87,1.34.25.3.49.94.74,1.94.24,1,.47,2.34.67,4.04.08.67.12,1.31.11,1.91-.01.61-.05,1.19-.11,1.74-.15,1.29-.42,2.89-.8,4.83-.38,1.93-.75,3.52-1.09,4.75-.64,2.4-1.15,4.38-1.53,5.95-.38,1.57-.68,2.75-.89,3.55-.15.61-.3,1.35-.44,2.21-.14.86-.29,1.84-.46,2.94-.15.92-.44,2.07-.88,3.46-.44,1.39-.91,2.97-1.39,4.76-.09.8-.26,1.72-.5,2.76-.24,1.04-.54,2.24-.9,3.6-.21.8-.51,1.71-.89,2.73-.38,1.02-.77,2.21-1.16,3.56-.03.92-.08,1.86-.15,2.84-.36,1.72-.73,3.5-1.1,5.34-.55,2.64-1.1,5.31-1.65,8.01-.55,2.7-1.08,5.31-1.57,7.82-.33.74-.68,1.58-1.07,2.51-.05.43-.08,1.08-.08,1.97,0,.88-.04,1.6-.1,2.15-.08.67-.27,1.67-.59,2.99-.31,1.32-.51,2.29-.58,2.9-.13,1.16-.37,2.97-.69,5.42-.32,2.45-.56,4.29-.7,5.51.08,1.03.14,2.04.19,3.01-.22.86-.43,1.55-.63,2.08-.2.53-.44.95-.72,1.26-.8.7-1.53,1.28-2.18,1.73-.47.63-.86,1.13-1.16,1.5-.3.38-.56.57-.76.58-.88.03-1.49-.13-1.81-.48-.32-.35-.44-.84-.37-1.45.31-2.02.68-3.98,1.1-5.89-.05-.24-.1-.6-.14-1.09-.04-.48-.12-1.09-.24-1.82.35-4.76.66-9.65.92-14.65.54-3.61,1.02-7.26,1.45-10.93.2-1.71.5-3.87.9-6.47.4-2.6.94-5.62,1.62-9.06.68-3.44,1.23-6.44,1.65-9.01.42-2.57.72-4.69.91-6.34.08-.73.24-1.67.48-2.8.23-1.14.5-2.53.82-4.19.28-1.41.55-2.68.8-3.82.25-1.13.43-2.16.54-3.08.06-.49.1-1.01.12-1.56.02-.55.04-1.04.05-1.46.58-1.54,1.02-2.79,1.34-3.75.31-.95.48-1.58.52-1.89-.07-.79-.16-1.58-.27-2.37.34-.87.78-2.42,1.32-4.66.54-2.24,1.18-5.17,1.92-8.8.08-.73.19-1.62.31-2.66.12-1.04.29-2.29.5-3.76l-.17-1.64c-.15-.12-.42-.26-.82-.43-.4-.17-.92-.3-1.54-.4l-.88.85c-.54.2-1.1.41-1.66.61-.56.2-1.16.44-1.79.71-4.39,1.93-8.73,3.82-13.03,5.69-.32.01-.56-.18-.71-.57-.15-.39-.19-.92-.11-1.6.04-.37.22-1.01.52-1.94.31-.93.77-2.13,1.38-3.62.33-2.14.63-3.92.92-5.33.28-1.41.55-2.49.79-3.23.48-1.36,1.1-2.51,1.87-3.45.77-.94,1.65-1.67,2.63-2.2,1.95-.99,3.75-1.66,5.4-2.03,1.64-.36,3.13-.45,4.47-.26Z"/>
    <path class="cls-12" d="m302.37,246.74c-1.1.04-1.83-.19-2.31-.73-.58-.65-.83-1.6-.7-2.67.31-1.98.66-3.89,1.06-5.72-.04-.24-.07-.54-.1-.89-.04-.45-.12-1.01-.22-1.69-.02-.14-.03-.28-.02-.42.35-4.74.66-9.66.92-14.62.55-3.75,1.03-7.41,1.46-11.04.2-1.75.51-3.95.91-6.54.4-2.6.95-5.67,1.63-9.13.67-3.4,1.22-6.42,1.64-8.96.41-2.54.72-4.64.9-6.26.09-.79.25-1.76.5-2.95.23-1.13.5-2.52.81-4.16.29-1.44.56-2.73.81-3.87.24-1.07.41-2.05.51-2.91.05-.45.09-.92.11-1.43.02-.53.04-1.01.05-1.43,0-.19.04-.38.1-.55.57-1.52,1.01-2.75,1.31-3.69.27-.84.38-1.25.42-1.44-.06-.68-.14-1.36-.23-2.04-.04-.3,0-.6.09-.86.31-.8.74-2.3,1.26-4.47.53-2.2,1.17-5.14,1.91-8.74l.29-2.52c.12-1,.27-2.2.47-3.59l-.07-.69c-.08-.04-.18-.08-.29-.13-.29-.12-.67-.23-1.13-.31l-.64.63c-.07.07-.15.12-.24.15l-1.67.61c-.56.2-1.14.43-1.76.69-4.38,1.93-8.72,3.82-13.02,5.69-.06.03-.13.04-.2.05-.62.02-1.13-.4-1.45-1.18-.26-.66-.34-1.48-.22-2.45.06-.5.24-1.2.6-2.26.31-.92.76-2.11,1.35-3.54.33-2.12.62-3.83.9-5.22.3-1.49.57-2.6.84-3.41.54-1.52,1.23-2.8,2.08-3.83.83-1.02,1.8-1.83,2.86-2.39,2.01-1.01,3.87-1.71,5.55-2.08,1.64-.36,3.15-.46,4.51-.29,1.72-.78,3.59-1.39,5.55-1.82,2.01-.44,4.25-.71,6.64-.8.49-.02,1.16.07,2.06.26.79.17,1.43.25,1.91.23.92.18,1.51.35,1.93.54.35.14.84.31,1.47.49l1.58-.71c.1-.04.2-.06.3-.04.49.07.99.36,1.48.85.27.27.58.57.93.88.32-.25.71-.54,1.17-.86.1-.07.2-.1.31-.11,1.12-.04,1.75.83,2.07,1.57.4.93.58,2.13.55,3.69l-.35,3.06c-.12.99-.28,2.04-.49,3.12-.06.28-.13.86-.17,2.03-.04,1.1-.1,1.93-.17,2.52-.11.94-.35,1.67-.72,2.16-.37.5-.82.76-1.34.78-1.58.06-3.12-.09-4.6-.44-1.41-.34-2.82-.86-4.18-1.57-1.24.38-2.35.68-3.3.89-.89.17-1.33.38-1.55.53-.01,0-.02.02-.03.02.06.15.13.3.2.46.18.37.41.73.69,1.06.39.47.71,1.26,1.01,2.5.26,1.08.5,2.47.71,4.26.09.74.13,1.47.12,2.16-.01.68-.05,1.31-.12,1.92-.15,1.32-.43,2.99-.82,4.97-.39,1.97-.77,3.6-1.12,4.86-.63,2.37-1.14,4.34-1.52,5.9-.39,1.58-.69,2.78-.9,3.58-.14.55-.27,1.24-.4,2.05-.14.86-.29,1.83-.46,2.93-.16,1.02-.47,2.23-.94,3.71-.42,1.33-.88,2.87-1.34,4.58-.1.82-.28,1.77-.52,2.81-.24,1.06-.55,2.27-.91,3.64-.22.84-.54,1.81-.93,2.87-.34.92-.7,2.02-1.07,3.26-.03.87-.08,1.77-.15,2.69,0,.08-.02.15-.03.23-.36,1.72-.72,3.49-1.1,5.33-.55,2.64-1.1,5.31-1.65,8.01-.55,2.7-1.07,5.3-1.56,7.81-.02.11-.06.22-.1.32-.3.68-.62,1.43-.97,2.27-.02.29-.04.77-.05,1.55,0,.96-.04,1.73-.11,2.35-.09.74-.29,1.78-.62,3.19-.37,1.56-.5,2.33-.54,2.7-.13,1.17-.37,2.98-.69,5.44-.31,2.33-.53,4.09-.68,5.31.08.99.14,1.95.18,2.88,0,.18,0,.36-.05.52-.24.93-.46,1.66-.68,2.24-.25.66-.56,1.2-.92,1.61-.85.76-1.58,1.33-2.22,1.78-.44.58-.81,1.06-1.1,1.42-.45.56-.85.83-1.24.84Zm-.68-11.99c.1.68.18,1.26.22,1.72.03.39.07.68.11.88.05.25.05.52,0,.77-.41,1.87-.78,3.81-1.08,5.78.06.17.31.43,1.34.39-.01,0,.09-.07.29-.31.3-.37.68-.86,1.14-1.48.06-.07.12-.14.19-.18.62-.43,1.34-.99,2.11-1.67.12-.14.28-.44.43-.83.16-.42.33-.98.51-1.66-.05-.87-.1-1.76-.17-2.68,0-.12,0-.24,0-.35.14-1.23.38-3.07.7-5.53.32-2.43.55-4.23.68-5.39.08-.69.28-1.7.61-3.1.3-1.26.48-2.2.55-2.79.06-.48.08-1.13.09-1.95,0-.96.03-1.67.09-2.17.02-.15.06-.3.11-.43.37-.88.7-1.67,1.02-2.38.48-2.47,1-5.02,1.54-7.67.55-2.7,1.1-5.37,1.65-8.01.37-1.8.72-3.54,1.08-5.23.07-.91.11-1.79.14-2.64,0-.15.03-.3.07-.43.41-1.39.81-2.63,1.2-3.66.36-.97.64-1.85.84-2.59.35-1.33.65-2.51.88-3.55.23-.98.38-1.84.47-2.57.01-.08.03-.17.05-.25.49-1.8.96-3.42,1.41-4.82.41-1.31.69-2.39.82-3.23.17-1.1.32-2.08.46-2.94.15-.91.3-1.69.46-2.34.22-.82.51-1.99.89-3.54.38-1.57.9-3.57,1.54-5.98.33-1.2.69-2.76,1.07-4.65.37-1.88.64-3.46.78-4.69.06-.5.09-1.01.1-1.57,0-.52-.02-1.07-.09-1.65-.19-1.62-.41-2.91-.63-3.84-.28-1.14-.46-1.38-.47-1.39-.41-.47-.76-1.02-1.03-1.6-.27-.57-.46-1.1-.6-1.62-.06-.21-.07-.44-.05-.66.09-.78.46-1.39,1.11-1.82.46-.31,1.1-.53,1.96-.7.96-.21,2.11-.53,3.41-.94.14-.04.29-.03.43.05,1.34.71,2.72,1.24,4.11,1.57,1.38.33,2.83.47,4.31.41.14,0,.24-.06.34-.19.1-.13.18-.41.22-.8.06-.52.11-1.27.15-2.25.04-1.14.12-1.98.24-2.56.19-.99.34-1.95.45-2.85l.33-2.89c.01-.83-.08-1.6-.28-2.06-.09-.2-.21-.38-.49-.42-.54.38-.97.71-1.28.98-.25.22-.55.22-.81,0-.57-.48-1.05-.93-1.44-1.33-.2-.21-.4-.34-.58-.4l-1.6.72c-.12.05-.25.07-.38.03-.76-.22-1.35-.42-1.79-.59-.36-.16-.89-.31-1.59-.46-.43.05-1.17-.05-2.05-.25-.79-.17-1.39-.25-1.79-.24-2.33.09-4.5.35-6.45.78-1.94.42-3.78,1.04-5.47,1.81-.1.05-.2.06-.31.05-1.26-.19-2.7-.11-4.28.25-1.59.35-3.36,1.02-5.26,1.98-.88.47-1.69,1.14-2.38,2-.68.84-1.25,1.88-1.67,3.09-.22.65-.47,1.68-.74,3.01-.28,1.38-.57,3.1-.91,5.26-.02.13-.05.25-.1.36-.59,1.44-1.05,2.63-1.35,3.52-.39,1.17-.44,1.54-.45,1.6-.04.33-.03.54-.01.66,4.23-1.84,8.51-3.7,12.82-5.6.65-.27,1.26-.51,1.83-.72l1.53-.56.77-.75c.15-.15.33-.21.51-.18.68.11,1.23.25,1.68.44.61.25.85.42.98.52.24.18.41.53.45.93l.17,1.64c.02.15.01.3,0,.45-.21,1.45-.37,2.69-.49,3.72l-.31,2.66c-.77,3.78-1.42,6.76-1.96,9-.49,2.02-.89,3.49-1.23,4.45.09.67.16,1.34.22,2,.01.12,0,.25,0,.37-.04.31-.13.81-.59,2.21-.3.92-.72,2.11-1.26,3.56-.01.36-.02.77-.04,1.2-.03.6-.07,1.16-.13,1.69-.11.97-.3,2.07-.57,3.25-.25,1.13-.51,2.39-.8,3.79-.31,1.65-.58,3.05-.82,4.19-.22,1.08-.37,1.98-.45,2.66-.19,1.67-.5,3.83-.93,6.42-.42,2.58-.98,5.63-1.66,9.07-.67,3.41-1.21,6.43-1.61,8.99-.39,2.54-.69,4.7-.89,6.41-.42,3.67-.91,7.36-1.45,10.98-.24,4.74-.54,9.61-.89,14.31Z"/>
  </g>
  <g>
    <path class="cls-14" d="m558.7,131.32c-.02-.67,0-1.22.04-1.64.05-.43.09-.79.14-1.09.31-2.01.73-3.73,1.27-5.16.54-1.43,1.21-2.63,2-3.61.2-.24.67-.61,1.41-1.1.74-.49,1.7-1.06,2.89-1.73.85-.55,1.56-1.2,2.14-1.96.58-.76.97-1.69,1.18-2.78.25-.85.64-1.83,1.17-2.92.53-1.1,1.14-2.28,1.81-3.56.22-.37,1.02-2.47,2.42-6.3,1.39-3.84,3.38-9.47,5.97-16.89.75-2.25,1.45-4.2,2.1-5.84.65-1.64,1.21-3.04,1.67-4.2,2.08-5.17,3.66-8.57,4.73-10.18,1.07-1.61,1.89-2.94,2.45-3.97l.07-.46-1.18-4.47,2.98-4.11,3.16-.91c.62-.12,1.31-.97,2.05-2.56.75-1.58,1.89-3.32,3.42-5.21.3-.12.81-.5,1.53-1.14.72-.64,1.65-1.54,2.8-2.69,1-1.03,1.84-1.79,2.52-2.28.68-.49,1.18-.73,1.5-.73,1.08,0,1.81.34,2.19,1.01.38.67.49,1.55.32,2.64-.21,1.34-.97,3.29-2.28,5.84-1.32,2.56-2.08,4.5-2.28,5.84-.09.61-.08,1.11.04,1.5.12.4.29.66.51.78l6.31,5.93c.36.24.58,1.2.64,2.88.06,1.67-.03,3.97-.27,6.89-.13,2.43-.25,4.46-.36,6.07-.11,1.61-.23,2.91-.38,3.88-.68,2.62-1.37,5.26-2.06,7.94-.12,3.41-.23,7-.33,10.77-.79,3.59-1.61,7.24-2.46,10.95-.06.37-.06.69,0,.96.06.27.18.44.37.5.67.06,1.14.34,1.41.82.27.49.33,1.16.2,2.01-.17,1.1-.41,1.97-.73,2.6-.32.64-.71,1.14-1.16,1.51-.6.49-1.07.91-1.43,1.28-.36.37-.61.67-.77.91l-.09,5.66-3.07,12.98c-.17,1.1-.44,2.5-.83,4.2-.38,1.71-.87,3.68-1.45,5.94-.65,1.64-1.17,3.02-1.53,4.11-.37,1.1-.58,1.83-.64,2.19.04,1.04.05,2.13.04,3.29-.49,1.65-1,3.29-1.51,4.93-.51,1.64-1.01,3.26-1.5,4.84-.77,2.13-1.59,3.7-2.47,4.7-.88,1.01-1.8,1.51-2.76,1.51-.52,0-.86-.35-1.02-1.05-.15-.7-.12-1.75.09-3.15.09-.61.3-1.49.62-2.65.32-1.16.52-2.04.62-2.65.07-.43.11-1,.15-1.73.03-.73.09-1.37.17-1.92.26-1.71.79-4.43,1.59-8.18.8-3.75,1.34-6.56,1.63-8.45-.04-1.04-.08-2.1-.11-3.2.3-1.16.56-2.33.78-3.52.22-1.19.37-2.3.45-3.34l1.28-2.47.52-8.5-.38-.27c-.24,0-.62.14-1.12.41-.5.27-1.15.72-1.92,1.33-.52.24-1.31.5-2.38.78-1.07.27-2.45.44-4.15.5-.81.55-1.57,1.04-2.28,1.46-.97.31-2.22.84-3.75,1.6-1.53.76-3.3,1.69-5.32,2.79-1.21.79-2.3,1.42-3.28,1.87-.98.46-1.77.68-2.37.68-.48,0-.93.27-1.33.82-.41.55-.79,1.34-1.15,2.38-.27.98-.77,2.32-1.49,4.02-.73,1.71-1.67,3.84-2.82,6.39-.26.67-.64,1.71-1.14,3.11-.5,1.4-1.08,3.14-1.76,5.21-.36.79-.8,1.78-1.3,2.97-.5,1.19-1.08,2.57-1.72,4.16-.11.73-.3,1.63-.56,2.7-.26,1.07-.6,2.3-1.02,3.7-.33.85-.77,1.93-1.31,3.24-.54,1.31-1.2,2.75-1.96,4.34-.47.97-1.04,1.69-1.72,2.15-.67.46-1.49.68-2.46.68-.68,0-1.16-.35-1.44-1.05-.27-.7-.3-1.78-.08-3.24.24-1.58.64-3.39,1.2-5.43.55-2.04,1.28-4.28,2.18-6.71,1.06-3.23,1.94-5.84,2.65-7.85.71-2.01,1.16-3.5,1.35-4.47.19-.43.48-1.19.89-2.28.41-1.1.9-2.43,1.46-4.02.6-1.52,1.2-3.26,1.83-5.21l-.19-.73-2,.46c-.43-.06-.71-.33-.84-.82-.13-.49-.13-1.12,0-1.92.07-.43.18-.9.34-1.42.16-.52.38-1.14.65-1.87Zm24.5-16.83c.93,0,2.34-.34,4.26-1.01,1.91-.67,3.33-1.01,4.26-1.01.53.18,1.07.34,1.62.46,1.05-.31,2.09-.66,3.12-1.06,1.03-.4,2.07-.75,3.12-1.06.42-.12.76-.35,1.01-.69.25-.33.42-.78.5-1.32.2-1.83.35-3.07.45-3.74.18-1.16.43-2.45.75-3.88.32-1.43.7-2.91,1.13-4.43l-.09-4.11.82-3.74c.04-1.34.11-2.6.19-3.79.08-1.19.22-2.18.42-2.97-.04-.24-.12-.64-.24-1.19-.12-.55-.25-1.13-.4-1.73-.24-1.03-.51-2.02-.78-2.97-.28-.94-.54-1.9-.8-2.88-.39-1.16-.86-2.01-1.42-2.56-.56-.55-1.18-.82-1.87-.82-.8,0-1.78.97-2.92,2.92-1.14,1.95-2.38,4.9-3.71,8.86-.2.49-.68,1.49-1.46,3.01-.78,1.52-1.85,3.5-3.23,5.94-.52,2.31-1.5,5.19-2.95,8.63-1.45,3.44-3.36,7.47-5.72,12.1-.27.43-.43.8-.5,1.1-.07.3-.13.64-.18,1.01-.07.43-.05.75.06.96.11.21.3.32.58.32.4,0,1.06-.06,1.99-.18.92-.12,1.59-.18,1.99-.18Z"/>
    <path class="cls-15" d="m550.71,179.11c-1.22,0-1.84-.9-2.13-1.64-.39-1-.44-2.35-.17-4.15.25-1.63.67-3.52,1.24-5.62.57-2.08,1.31-4.38,2.22-6.84,1.04-3.19,1.93-5.82,2.65-7.83.68-1.93,1.12-3.35,1.29-4.24.02-.12.06-.23.1-.33.18-.41.47-1.15.86-2.21.41-1.09.89-2.42,1.45-4,.46-1.19.93-2.49,1.4-3.9l-.94.21c-.06.02-.13.02-.2,0-1-.14-1.38-1.06-1.52-1.59-.19-.73-.2-1.59-.04-2.64.08-.51.21-1.05.39-1.66.15-.47.33-1.02.57-1.66,0-.6.01-1.1.06-1.53.05-.46.1-.85.15-1.18.32-2.11.78-3.96,1.36-5.49.59-1.56,1.33-2.88,2.19-3.95.18-.22.52-.56,1.59-1.27.75-.49,1.73-1.08,2.93-1.76.73-.47,1.38-1.07,1.89-1.74.46-.61.77-1.33.94-2.2.32-1.1.73-2.12,1.3-3.3.54-1.11,1.15-2.31,1.84-3.61.12-.21.53-1.15,2.34-6.12,1.37-3.78,3.38-9.46,5.96-16.87.75-2.25,1.47-4.25,2.13-5.91l1.67-4.2c2.14-5.32,3.73-8.72,4.86-10.42.94-1.41,1.69-2.61,2.22-3.56l-1.06-4.02c-.13-.47-.04-1.02.21-1.36l2.98-4.11c.11-.15.25-.25.39-.3l3.16-.91c.22-.05.72-.31,1.55-2.07.78-1.66,1.99-3.5,3.57-5.44.09-.11.19-.19.3-.23.1-.04.44-.22,1.34-1.02.72-.64,1.65-1.53,2.76-2.66,1.02-1.06,1.91-1.85,2.63-2.37.81-.58,1.4-.85,1.85-.85,1.34,0,2.26.47,2.81,1.44.38.67.77,1.86.49,3.72-.23,1.53-1.03,3.59-2.43,6.32-1.54,2.99-2.01,4.57-2.13,5.37-.07.47-.03.67-.01.72.05.03.16.2.21.25l6.31,5.93c.78.51.96,2.33,1.02,3.84.07,1.75-.03,4.14-.28,7.11-.13,2.39-.25,4.42-.36,6.04-.11,1.68-.24,3-.4,4.03-.7,2.72-1.37,5.31-2.05,7.93-.12,3.34-.23,6.86-.32,10.55,0,.12-.02.23-.04.34-.79,3.56-1.6,7.18-2.44,10.86.68.12,1.25.53,1.62,1.21.3.55.61,1.52.37,3.06-.2,1.28-.48,2.28-.87,3.06-.39.78-.87,1.4-1.43,1.85-.56.46-1.02.86-1.36,1.21-.19.19-.32.34-.42.46l-.08,5.13c0,.13-.02.26-.05.38l-3.07,12.98c-.15,1-.43,2.42-.82,4.18-.38,1.71-.88,3.73-1.46,5.99-.7,1.8-1.21,3.16-1.57,4.22-.36,1.06-.49,1.56-.54,1.78.04,1,.05,2.06.03,3.18,0,.16-.03.33-.07.48-.5,1.65-1,3.3-1.51,4.95-.51,1.64-1.01,3.25-1.49,4.83-.84,2.35-1.75,4.06-2.71,5.17-1.02,1.17-2.11,1.76-3.25,1.76-.87,0-1.52-.69-1.78-1.89-.2-.93-.18-2.18.07-3.82.11-.69.32-1.62.66-2.84.3-1.09.49-1.92.58-2.46.06-.37.1-.89.13-1.54.03-.79.1-1.5.19-2.11.27-1.75.79-4.46,1.6-8.27.76-3.59,1.3-6.34,1.58-8.18-.04-.99-.08-2-.11-3.04,0-.17.01-.34.05-.5.28-1.11.54-2.26.76-3.41.21-1.13.35-2.18.43-3.14.02-.22.08-.44.17-.62l1.14-2.18.42-6.91c-.1.04-.21.1-.35.18-.47.26-1.09.68-1.82,1.26-.04.03-.09.06-.13.08-.56.26-1.4.53-2.49.81-1.08.28-2.46.45-4.11.51-.77.52-1.49.98-2.16,1.38-1.07.35-2.3.88-3.79,1.62-1.52.76-3.29,1.69-5.3,2.78-1.18.77-2.31,1.42-3.31,1.89-1.06.5-1.92.74-2.61.74-.28,0-.54.16-.8.51-.33.45-.66,1.13-.97,2.03-.26.95-.77,2.32-1.53,4.11-.73,1.72-1.67,3.85-2.84,6.43-.23.59-.61,1.61-1.1,2.99-.49,1.39-1.08,3.11-1.75,5.17-.42.94-.85,1.91-1.34,3.09-.48,1.14-1.03,2.47-1.65,3.97-.12.74-.31,1.61-.56,2.65-.27,1.09-.62,2.34-1.04,3.77-.38.98-.82,2.07-1.37,3.39-.55,1.32-1.22,2.81-2,4.41-.55,1.15-1.24,2-2.04,2.54-.77.52-1.71.79-2.79.79Zm6.6-29.46c-.22,1.06-.67,2.54-1.38,4.53-.71,2-1.59,4.61-2.64,7.82-.89,2.43-1.61,4.64-2.15,6.63-.54,1.97-.92,3.74-1.16,5.24-.24,1.54-.09,2.15-.02,2.34.05.13.18.45.74.45.85,0,1.56-.19,2.13-.58.55-.37,1-.95,1.4-1.76.75-1.56,1.4-2.99,1.93-4.27.54-1.3.97-2.37,1.3-3.22.37-1.25.7-2.46.96-3.51.25-1.02.43-1.87.53-2.54.02-.13.05-.25.1-.37.65-1.59,1.23-2.98,1.73-4.18.51-1.2.95-2.2,1.32-3,.63-1.93,1.22-3.68,1.72-5.09.5-1.42.89-2.47,1.16-3.15,1.18-2.61,2.12-4.73,2.84-6.43.7-1.64,1.18-2.93,1.43-3.83.44-1.28.87-2.17,1.36-2.82.56-.75,1.19-1.13,1.87-1.13.52,0,1.24-.21,2.13-.63.95-.44,2.02-1.06,3.19-1.83,2.08-1.13,3.85-2.06,5.39-2.82,1.55-.77,2.84-1.32,3.84-1.64.57-.36,1.31-.84,2.11-1.38.1-.07.2-.1.31-.11,1.64-.06,3-.22,4.04-.49.98-.25,1.72-.49,2.21-.71.77-.6,1.43-1.05,1.95-1.34.82-.45,1.33-.66,1.74-.37l.38.28c.31.22.49.71.46,1.22l-.52,8.5c-.01.23-.07.46-.17.64l-1.15,2.2c-.09.99-.24,2.06-.45,3.18-.22,1.15-.47,2.28-.74,3.39.03,1,.06,1.97.1,2.92,0,.12,0,.24-.02.36-.29,1.9-.85,4.78-1.65,8.55-.79,3.7-1.31,6.42-1.57,8.08-.07.49-.13,1.06-.15,1.72-.03.8-.09,1.43-.16,1.93-.1.68-.32,1.61-.66,2.85-.37,1.35-.52,2.08-.58,2.45-.24,1.54-.17,2.22-.11,2.49.03.16.05.21.25.21.79,0,1.53-.41,2.27-1.26.78-.9,1.54-2.35,2.25-4.32.46-1.51.96-3.13,1.47-4.78.49-1.56.97-3.12,1.44-4.68.01-1.03,0-2.01-.04-2.94,0-.12,0-.24.02-.35.05-.32.17-.89.7-2.47.37-1.11.9-2.52,1.56-4.19.52-2.04,1-4.02,1.38-5.7.37-1.67.64-3.04.8-4.09l3.06-12.93.08-5.47c0-.31.09-.61.23-.83.2-.31.49-.66.9-1.07.37-.38.87-.83,1.5-1.34.36-.29.65-.67.9-1.17.25-.5.45-1.22.59-2.14.05-.32.08-.73-.04-.95-.05-.1-.24-.33-.84-.38-.59-.18-.95-.66-1.09-1.35-.1-.48-.11-1.03-.02-1.61.86-3.77,1.67-7.36,2.45-10.9.1-3.71.2-7.25.32-10.61,0-.13.02-.26.05-.38.69-2.68,1.38-5.33,2.06-7.94.1-.74.23-1.99.33-3.55.11-1.61.23-3.62.36-6.05.24-2.88.33-5.12.27-6.72-.06-1.55-.24-1.9-.25-1.91l-6.27-5.87c-.29-.19-.64-.57-.88-1.36-.2-.65-.23-1.42-.09-2.29.23-1.53,1.03-3.59,2.43-6.32,1.54-2.99,2.01-4.57,2.13-5.36.14-.93-.01-1.34-.14-1.57-.1-.18-.45-.58-1.58-.58-.05,0-.34.03-1.16.61-.64.46-1.45,1.2-2.41,2.19-1.14,1.16-2.1,2.07-2.84,2.74-.83.74-1.28,1.04-1.55,1.18-1.42,1.75-2.48,3.37-3.16,4.82-.89,1.89-1.75,2.89-2.61,3.06l-2.89.84-2.4,3.3.98,3.69c.06.23.07.49.04.73l-.07.46c-.03.18-.08.35-.16.5-.58,1.08-1.4,2.41-2.51,4.07-1.02,1.54-2.57,4.88-4.61,9.95l-1.67,4.2c-.64,1.61-1.34,3.55-2.07,5.76-2.6,7.45-4.61,13.14-5.98,16.93-2.14,5.87-2.39,6.3-2.52,6.53-.64,1.21-1.24,2.38-1.76,3.47-.49,1.02-.86,1.93-1.09,2.7-.21,1.16-.69,2.29-1.39,3.21-.64.84-1.43,1.57-2.36,2.16-1.21.69-2.16,1.25-2.89,1.73-.96.63-1.19.88-1.22.92-.71.87-1.32,1.97-1.81,3.26-.5,1.32-.9,2.94-1.19,4.83-.04.28-.08.62-.13,1.01-.04.35-.05.82-.03,1.4,0,.23-.03.45-.1.65-.26.7-.47,1.3-.62,1.79-.13.44-.23.83-.28,1.17-.11.71-.06,1.05-.03,1.19,0,0,.03.02.08.04l1.89-.43c.36-.1.73.23.87.76l.19.73c.08.32.07.67-.02.98-.63,1.97-1.25,3.75-1.86,5.3-.55,1.55-1.04,2.89-1.45,4-.38,1.01-.66,1.74-.86,2.2Zm54.02-42.35h0Zm-32.11,8.79c-.68,0-1.04-.44-1.23-.8-.26-.5-.33-1.17-.21-1.98.06-.41.13-.78.21-1.12.1-.48.33-.99.68-1.55,2.28-4.47,4.19-8.52,5.63-11.92,1.41-3.34,2.38-6.16,2.87-8.36.03-.15.08-.29.15-.41,1.37-2.42,2.45-4.41,3.21-5.88.94-1.83,1.28-2.59,1.41-2.9,1.33-3.95,2.61-7.02,3.8-9.03,1.32-2.24,2.47-3.33,3.53-3.33.84,0,1.62.34,2.3,1.02.68.66,1.25,1.68,1.7,3.03.28,1.06.54,2,.81,2.93.29.97.55,1.99.81,3.06.15.61.28,1.2.4,1.77.12.57.21.99.25,1.25.05.25.04.52-.03.76-.17.69-.3,1.58-.37,2.65-.08,1.17-.14,2.41-.19,3.72,0,.11-.02.22-.04.32l-.77,3.54.09,3.89c0,.18-.02.36-.07.53-.42,1.47-.79,2.93-1.11,4.33-.31,1.37-.55,2.64-.72,3.77-.1.66-.25,1.88-.44,3.67-.13.88-.39,1.54-.77,2.05-.36.48-.83.8-1.39.96-1.02.3-2.05.65-3.07,1.04-1.05.41-2.12.77-3.17,1.07-.09.03-.18.03-.27,0-.53-.12-1.06-.27-1.59-.45-.86.02-2.2.35-3.99.98-2,.7-3.45,1.04-4.44,1.04-.39,0-1.03.06-1.92.18-.96.13-1.64.19-2.06.19Zm9.42-24.73c-.55,2.36-1.55,5.27-2.99,8.67-1.46,3.47-3.4,7.57-5.76,12.19-.33.53-.37.73-.37.74-.05.21-.09.44-.13.68.44-.01,1.01-.07,1.74-.17.96-.13,1.64-.19,2.06-.19.86,0,2.23-.33,4.08-.98,2-.7,3.45-1.04,4.44-1.04.06,0,.12.01.18.03.47.16.94.3,1.42.41.97-.29,1.96-.62,2.94-1,1.05-.41,2.12-.77,3.17-1.07.27-.08.49-.22.63-.41.12-.16.2-.38.25-.68.19-1.79.35-3.06.45-3.74.19-1.21.44-2.55.77-4,.31-1.39.67-2.82,1.08-4.26l-.09-3.84c0-.15.01-.29.04-.42l.78-3.59c.04-1.3.11-2.53.19-3.69.07-1.1.2-2.07.38-2.88-.04-.21-.09-.46-.16-.77-.11-.53-.24-1.1-.39-1.69-.24-1.02-.49-1.98-.76-2.89-.28-.96-.55-1.93-.81-2.93-.29-.85-.67-1.55-1.11-1.98-.43-.42-.9-.62-1.43-.62-.31,0-1.03.33-2.32,2.51-1.09,1.86-2.3,4.75-3.59,8.6-.25.62-.74,1.64-1.54,3.21-.76,1.5-1.8,3.4-3.16,5.81Z"/>
  </g>
  <g>
    <path class="cls-16" d="m643.13,100.2c-.19,1.22.14,2.85.97,4.89.83,2.04,2.17,4.55,4,7.54,1.2,1.89,2.45,3.73,3.77,5.53,1.31,1.8,2.61,3.61,3.9,5.44.55.85,1.27,1.96,2.14,3.33.88,1.37,1.9,2.97,3.06,4.8.86,1.22,1.77,2.44,2.73,3.66.96,1.22,2.01,2.44,3.15,3.65.73,1.04,1.54,2.16,2.44,3.38.9,1.22,1.94,2.53,3.14,3.93.69.73,1.11,2.06,1.26,3.97.15,1.92.03,4.4-.36,7.45l-.91,2.38-.67.46c-.4,0-.9-.26-1.48-.78-.58-.52-1.3-1.27-2.16-2.24-.17-.18-.99-.85-2.44-2.01-1.45-1.16-3.54-2.8-6.27-4.93-1.52-1.1-2.88-2.33-4.08-3.7-1.2-1.37-2.26-2.82-3.2-4.34-.54-.91-1.26-1.92-2.16-3.02-.9-1.1-1.97-2.28-3.22-3.56-1.29-1.28-2.39-2.5-3.3-3.65-.91-1.16-1.62-2.13-2.15-2.92-1.76-2.68-3.22-4.72-4.37-6.12-1.15-1.4-1.99-2.1-2.51-2.1-.53.85-.89,1.73-1.07,2.65-.92,2.86-1.99,6.47-3.2,10.83-1.21,4.36-2.58,9.43-4.11,15.22-.16,1.04-.4,1.81-.72,2.33-.32.52-.72.78-1.21.78-1.57,0-2.67-.58-3.29-1.74-.63-1.16-.76-2.89-.41-5.21.48-3.11,1.11-6.37,1.89-9.78.78-3.41,1.77-7.01,2.95-10.78.45-1.64.83-3.12,1.13-4.43.3-1.31.54-2.51.7-3.61.43-2.8,0-5.21-1.28-7.22-1.28-2.01-1.85-3.44-1.72-4.3.21-1.34.52-2.51.93-3.51.42-1,.93-1.81,1.55-2.42,1.52-1.28,2.94-2.49,4.24-3.65.32-.24.57-.65.76-1.23.19-.58.36-1.38.52-2.42.09-.61.19-1.26.3-1.96.11-.7.21-1.35.3-1.96.95-5.41,1.91-11.04,2.89-16.88.07-.43.17-1.09.31-2.01.14-.91.28-2.1.43-3.56.09-1.09.22-2.11.41-3.06.18-.94.34-1.81.46-2.6-.05-1.22-.1-2.27-.15-3.15-.05-.88,0-1.72.11-2.51.11-.73.33-1.87.65-3.42.32-1.55.53-2.66.63-3.33.13-.85.26-2.04.4-3.56.13-1.52.26-2.68.38-3.47.34-2.19.99-4.29,1.96-6.3.97-2.01,2.29-3.98,3.96-5.93,1.59-1.7,3.14-3,4.67-3.88,1.52-.88,3.01-1.32,4.46-1.32.68,0,1.69.08,3.01.23,1.32.15,2.37.23,3.13.23.52,0,1.85.67,3.98,2.01.91.12,1.71.29,2.4.5.69.21,1.24.44,1.64.69.89.73,1.59,1.29,2.09,1.69.5.4.87.62,1.1.68.63.37,1.17.67,1.64.91.47.24.83.55,1.1.91.47.37,1.01.79,1.64,1.28.63.49,1.34,1.04,2.13,1.64,1.28,1.1,2.44,2.37,3.48,3.83,1.04,1.46,2,3.04,2.86,4.75.95,2.19,1.59,4.34,1.91,6.43.32,2.1.32,4.18,0,6.25-.09.61-.26,1.48-.49,2.6-.23,1.13-.54,2.39-.91,3.79-.39,1.77-1.29,3.67-2.69,5.71-1.4,2.04-3.31,4.27-5.73,6.71-2.14,2.13-4.1,3.91-5.89,5.34-1.79,1.43-3.39,2.45-4.81,3.06-.61.55-1.09,1.07-1.44,1.55-.5.61-1.47,1.46-2.93,2.56-1.46,1.1-3.42,2.46-5.88,4.11-4.48,2.98-7.64,4.94-9.47,5.89-1.83.94-2.84,1.96-3,3.06Zm.41-43.99c.89-.85,1.75-1.69,2.56-2.51.81-.82,1.76-1.23,2.84-1.23.48,0,.95.81,1.41,2.42.46,1.61.62,2.81.5,3.61-.07.43-.32,1.4-.75,2.92-.44,1.52-1.07,3.59-1.92,6.2-1.83,5.9-2.92,9.6-3.27,11.09-.35,1.49-.97,3.82-1.86,6.98-.28.79-.6,1.83-.96,3.1-.08.55-.07.94.03,1.19.1.24.28.37.52.37,8.94-6.08,13.56-9.25,13.88-9.49.34-.12.71-.29,1.1-.5.39-.21.77-.44,1.13-.68l1.17-1.73c2.68-2.25,5.46-4.65,8.35-7.21,1.85-1.82,3.29-3.62,4.32-5.38,1.03-1.76,1.69-3.53,1.96-5.29.35-2.25-.18-4.47-1.57-6.66-1.39-2.19-3.67-4.29-6.82-6.3-2.67-1.76-5.14-3.05-7.43-3.88s-4.42-1.23-6.39-1.23c-2.57,0-4.62.69-6.14,2.05-1.52,1.37-2.48,3.39-2.89,6.07-.32,2.07-.46,3.64-.42,4.7.04,1.07.25,1.54.63,1.42Z"/>
    <path class="cls-13" d="m671.75,161.82c-.55,0-1.17-.31-1.89-.94-.62-.55-1.37-1.33-2.24-2.32-.03-.03-.37-.35-2.33-1.9-1.45-1.16-3.54-2.8-6.27-4.93-1.54-1.11-2.96-2.4-4.19-3.81-1.23-1.41-2.34-2.92-3.3-4.49-.53-.88-1.22-1.85-2.08-2.89-.87-1.07-1.94-2.25-3.17-3.5-1.3-1.28-2.43-2.54-3.37-3.73-.95-1.21-1.67-2.19-2.2-3-1.73-2.63-3.18-4.66-4.3-6.03-.89-1.08-1.42-1.53-1.71-1.71-.28.54-.48,1.1-.59,1.65-.96,3.02-2.03,6.65-3.23,10.96-1.23,4.44-2.62,9.55-4.11,15.2-.15,1.08-.45,2.03-.88,2.71-.47.76-1.09,1.16-1.8,1.16-1.82,0-3.13-.74-3.92-2.19-.79-1.46-.98-3.56-.57-6.26.48-3.14,1.13-6.48,1.92-9.9.79-3.44,1.79-7.11,2.99-10.91.43-1.57.8-3.02,1.1-4.31.29-1.27.52-2.45.68-3.48.37-2.39.02-4.39-1.07-6.1-1.56-2.45-2.14-4.07-1.93-5.42.23-1.47.57-2.78,1.03-3.89.48-1.15,1.08-2.09,1.79-2.8,1.57-1.32,2.97-2.53,4.27-3.68.2-.16.34-.38.45-.72.16-.49.31-1.21.46-2.15l.6-3.92c.96-5.45,1.92-11.07,2.9-16.91l.3-1.98c.14-.89.27-2.04.41-3.46.09-1.12.24-2.21.43-3.22.17-.85.31-1.63.42-2.35-.05-1.13-.1-2.12-.14-2.95-.05-1,0-1.97.13-2.88.12-.75.34-1.92.66-3.51.31-1.51.52-2.59.62-3.25.12-.8.25-1.96.38-3.44.14-1.57.27-2.75.4-3.59.36-2.34,1.06-4.61,2.1-6.74,1.01-2.09,2.4-4.17,4.11-6.18,1.66-1.78,3.29-3.14,4.87-4.05,1.61-.93,3.2-1.41,4.74-1.41.71,0,1.74.08,3.07.23,1.3.15,2.33.22,3.07.22.44,0,1.3.23,4.17,2.03.89.13,1.68.3,2.36.5.75.23,1.33.48,1.78.75.97.79,1.67,1.35,2.17,1.74.61.48.83.55.87.56.05.01.1.03.15.06.62.36,1.15.66,1.61.9.53.28.95.62,1.29,1.05l3.68,2.85c1.36,1.16,2.58,2.51,3.67,4.03,1.07,1.5,2.06,3.15,2.95,4.9,1.03,2.38,1.71,4.68,2.06,6.9.35,2.28.35,4.57,0,6.81-.1.63-.26,1.53-.51,2.69-.24,1.15-.55,2.45-.94,3.88-.42,1.9-1.37,3.93-2.87,6.12-1.43,2.08-3.39,4.38-5.85,6.85-2.15,2.14-4.15,3.96-5.96,5.4-1.79,1.43-3.42,2.47-4.87,3.11-.52.47-.93.92-1.23,1.33-.58.71-1.59,1.6-3.11,2.74-1.45,1.09-3.44,2.48-5.91,4.13-4.47,2.98-7.68,4.97-9.53,5.93-2.26,1.16-2.46,2.07-2.48,2.18h0c-.09.61-.02,1.79.87,3.97.8,1.97,2.12,4.44,3.91,7.35,1.17,1.84,2.42,3.68,3.72,5.45,1.32,1.81,2.62,3.62,3.91,5.45.58.89,1.29,2,2.17,3.38l3.06,4.8c.84,1.18,1.74,2.4,2.67,3.57.94,1.2,1.99,2.41,3.1,3.59.81,1.14,1.62,2.26,2.51,3.47.88,1.2,1.92,2.5,3.09,3.88.85.9,1.39,2.53,1.57,4.8.16,2.06.04,4.62-.37,7.82-.02.13-.05.26-.09.38l-.91,2.38c-.08.22-.21.4-.37.5l-.67.46c-.1.07-.22.11-.33.11Zm-37.33-41.83c.74,0,1.67.73,3.02,2.37,1.17,1.42,2.66,3.51,4.44,6.21.5.76,1.18,1.69,2.09,2.85.89,1.13,1.97,2.33,3.22,3.57,1.28,1.31,2.38,2.53,3.29,3.64.92,1.12,1.68,2.18,2.25,3.15.89,1.45,1.93,2.86,3.08,4.18,1.15,1.32,2.47,2.52,3.94,3.57,2.76,2.15,4.85,3.8,6.3,4.96,2.21,1.76,2.43,1.99,2.52,2.09.84.96,1.54,1.69,2.11,2.19.45.4.75.54.93.59l.25-.17.71-1.85c.35-2.82.46-5.13.32-6.87-.12-1.54-.43-2.59-.92-3.11-1.23-1.45-2.3-2.79-3.21-4.02-.9-1.22-1.72-2.36-2.45-3.4-1.06-1.11-2.14-2.36-3.11-3.6-.95-1.2-1.87-2.44-2.76-3.7l-3.09-4.84c-.87-1.37-1.59-2.48-2.14-3.33-1.26-1.79-2.56-3.59-3.87-5.39-1.33-1.81-2.61-3.69-3.81-5.58-1.87-3.04-3.25-5.64-4.11-7.74-.96-2.35-1.31-4.25-1.07-5.81.24-1.57,1.36-2.82,3.53-3.94,1.81-.93,4.97-2.9,9.4-5.85,2.45-1.64,4.42-3.01,5.85-4.08,1.73-1.31,2.47-2.03,2.78-2.41.36-.5.89-1.07,1.54-1.65.06-.05.13-.1.19-.13,1.36-.58,2.92-1.58,4.65-2.96,1.76-1.4,3.71-3.18,5.82-5.28,2.37-2.38,4.26-4.59,5.62-6.57,1.3-1.89,2.13-3.64,2.48-5.21.38-1.44.68-2.68.91-3.76.22-1.09.38-1.93.47-2.51.29-1.87.28-3.79,0-5.7-.3-1.95-.9-3.98-1.8-6.04-.8-1.57-1.73-3.11-2.73-4.52-.99-1.39-2.11-2.62-3.33-3.67l-3.75-2.9c-.06-.05-.12-.11-.17-.18-.18-.25-.46-.47-.82-.66-.46-.24-.99-.54-1.6-.89-.31-.11-.71-.35-1.25-.78-.5-.4-1.21-.96-2.11-1.7-.27-.15-.78-.36-1.42-.56-.65-.2-1.43-.36-2.31-.48-.08-.01-.16-.04-.24-.09-2.82-1.78-3.52-1.91-3.66-1.91-.78,0-1.86-.08-3.19-.23-1.29-.15-2.29-.22-2.95-.22-1.34,0-2.74.42-4.17,1.24-1.45.84-2.96,2.1-4.49,3.74-1.57,1.83-2.85,3.75-3.77,5.66-.9,1.86-1.52,3.83-1.83,5.85-.12.75-.24,1.88-.37,3.35-.14,1.58-.27,2.79-.41,3.68-.11.69-.32,1.83-.65,3.42-.31,1.51-.52,2.63-.63,3.34-.1.67-.13,1.39-.09,2.14.05.88.1,1.94.15,3.16,0,.12,0,.24-.02.36-.12.81-.28,1.7-.47,2.67-.17.88-.3,1.84-.38,2.85-.15,1.53-.3,2.76-.44,3.69l-.3,1.95c-.99,5.92-1.95,11.56-2.91,16.97l-.6,3.89c-.17,1.14-.37,2.02-.58,2.69-.27.82-.65,1.42-1.12,1.78-1.26,1.12-2.68,2.34-4.21,3.63-.47.46-.9,1.15-1.25,2-.37.88-.64,1.94-.83,3.14,0,0,0,.79,1.52,3.17,1.48,2.32,1.97,5.13,1.48,8.35-.17,1.12-.42,2.38-.73,3.73-.31,1.33-.69,2.83-1.15,4.5-1.18,3.77-2.16,7.36-2.93,10.72-.77,3.35-1.4,6.59-1.87,9.65-.29,1.92-.21,3.32.25,4.16.46.86,1.36,1.29,2.67,1.29.26,0,.45-.12.62-.39.22-.35.4-.96.52-1.77,1.53-5.83,2.92-10.96,4.16-15.42,1.21-4.35,2.29-8.02,3.22-10.89.17-.91.59-1.97,1.21-2.95.15-.24.36-.38.59-.38Zm8.23-28.42c-.7,0-1.05-.58-1.2-.93-.23-.53-.27-1.23-.14-2.12.41-1.51.74-2.59,1.04-3.41.86-3.09,1.46-5.35,1.8-6.81.36-1.55,1.44-5.22,3.3-11.2.84-2.59,1.47-4.66,1.91-6.17.56-1.97.68-2.55.7-2.71.04-.24.07-.99-.46-2.85-.42-1.49-.7-1.69-.71-1.69-.89.01-1.67.35-2.35,1.04-.82.83-1.68,1.67-2.58,2.53-.08.08-.17.13-.26.16-.37.12-.72,0-1-.32-.37-.42-.57-1.15-.6-2.23-.04-1.19.1-2.84.44-5.04.46-3,1.56-5.3,3.26-6.84,2.86-2.57,7.64-2.92,13.12-.96,2.33.84,4.88,2.16,7.57,3.95,3.27,2.09,5.59,4.24,7.07,6.57,1.59,2.5,2.19,5.12,1.78,7.79-.3,1.95-1.02,3.92-2.14,5.83-1.07,1.83-2.58,3.72-4.49,5.6-2.88,2.55-5.66,4.95-8.3,7.17l-1.09,1.62c-.07.1-.15.19-.24.24-.38.25-.77.49-1.19.72-.39.21-.76.38-1.1.51-.48.34-2.82,1.95-13.82,9.45-.1.07-.22.11-.33.11Zm6.29-40.31c1.26,0,1.93,2.38,2.15,3.16.54,1.9.71,3.29.55,4.36-.05.34-.19,1.01-.79,3.13-.44,1.54-1.09,3.65-1.93,6.25-1.8,5.81-2.89,9.5-3.24,10.96-.35,1.5-.96,3.81-1.87,7.05-.26.74-.53,1.59-.82,2.61,8.46-5.76,12.89-8.79,13.18-9.01.06-.04.12-.08.18-.1.31-.11.65-.27,1.02-.46.33-.18.64-.36.94-.56l1.07-1.58c.05-.08.11-.14.17-.2,2.66-2.23,5.46-4.65,8.33-7.19,1.75-1.73,3.15-3.47,4.13-5.14.94-1.6,1.54-3.2,1.78-4.76.28-1.83-.17-3.64-1.37-5.53-1.31-2.06-3.51-4.08-6.55-6.02-2.61-1.73-5.07-3.01-7.3-3.81-5.04-1.81-9.45-1.54-11.92.68-1.33,1.2-2.16,2.93-2.52,5.29-.28,1.86-.42,3.28-.4,4.22.67-.65,1.31-1.28,1.93-1.91.94-.96,2.05-1.44,3.29-1.44Z"/>
  </g>
</svg>