<?xml version="1.0" encoding="UTF-8"?>
<svg id="_Слой_1" data-name="Слой 1" xmlns="http://www.w3.org/2000/svg" xmlns:xlink="http://www.w3.org/1999/xlink" viewBox="0 0 421.52 511.85">
  <defs>
    <style>
      .cls-1 {
        clip-path: url(#clippath);
      }

      .cls-2 {
        fill: url(#linear-gradient);
      }

      .cls-2, .cls-3, .cls-4, .cls-5, .cls-6, .cls-7, .cls-8, .cls-9, .cls-10, .cls-11, .cls-12, .cls-13, .cls-14, .cls-15, .cls-16, .cls-17, .cls-18, .cls-19, .cls-20, .cls-21, .cls-22, .cls-23, .cls-24, .cls-25, .cls-26, .cls-27, .cls-28, .cls-29, .cls-30, .cls-31 {
        fill-rule: evenodd;
      }

      .cls-32 {
        fill: url(#_Небо_2);
      }

      .cls-33 {
        clip-rule: evenodd;
        fill: none;
      }

      .cls-3 {
        fill: url(#_Небо_2-26);
      }

      .cls-4 {
        fill: url(#_Небо_2-21);
      }

      .cls-5 {
        fill: url(#_Небо_2-20);
      }

      .cls-6 {
        fill: url(#_Небо_2-25);
      }

      .cls-7 {
        fill: url(#_Небо_2-24);
      }

      .cls-8 {
        fill: url(#_Небо_2-22);
      }

      .cls-9 {
        fill: url(#_Небо_2-23);
      }

      .cls-10 {
        fill: url(#_Небо_2-16);
      }

      .cls-11 {
        fill: url(#_Небо_2-12);
      }

      .cls-12 {
        fill: url(#_Небо_2-10);
      }

      .cls-13 {
        fill: url(#_Небо_2-11);
      }

      .cls-14 {
        fill: url(#_Небо_2-15);
      }

      .cls-15 {
        fill: url(#_Небо_2-13);
      }

      .cls-16 {
        fill: url(#_Небо_2-14);
      }

      .cls-17 {
        fill: url(#_Небо_2-18);
      }

      .cls-18 {
        fill: url(#_Небо_2-17);
      }

      .cls-19 {
        fill: url(#_Небо_2-19);
      }

      .cls-20 {
        fill: url(#_Небо_2-6);
      }

      .cls-21 {
        fill: url(#_Небо_2-7);
      }

      .cls-22 {
        fill: url(#_Небо_2-5);
      }

      .cls-23 {
        fill: url(#_Небо_2-4);
      }

      .cls-24 {
        fill: url(#_Небо_2-2);
      }

      .cls-25 {
        fill: url(#_Небо_2-9);
      }

      .cls-26 {
        fill: url(#_Небо_2-8);
      }

      .cls-27 {
        fill: url(#_Небо_2-3);
      }

      .cls-34 {
        fill: url(#linear-gradient-3);
      }

      .cls-35 {
        fill: url(#linear-gradient-5);
      }

      .cls-28 {
        fill: #fff;
      }

      .cls-29 {
        fill: #002736;
      }

      .cls-30 {
        fill: url(#linear-gradient-2);
      }

      .cls-31 {
        fill: url(#linear-gradient-4);
      }
    </style>
    <linearGradient id="_Небо_2" data-name="Небо 2" x1="87.4" y1="301.21" x2="315.31" y2="301.21" gradientTransform="translate(448.25 36.04) rotate(76.72)" gradientUnits="userSpaceOnUse">
      <stop offset="0" stop-color="#f8281e"/>
      <stop offset=".16" stop-color="#f33122"/>
      <stop offset=".41" stop-color="#e64a2d"/>
      <stop offset=".57" stop-color="#de5d36"/>
      <stop offset=".87" stop-color="#9e563e"/>
      <stop offset=".99" stop-color="#1b1e1f"/>
    </linearGradient>
    <clipPath id="clippath">
      <path class="cls-33" d="m247.96,154.13s9.55-4.34,15.04-17.07c0,0,11.24-5.42,18.42-6.98,0,0,1.39,1.19,2.17,2.11,0,0,10.07.17,11.38,2.08l4.16,2.67h6.68s1.56,2.18,1.11,4.45l2.2.27s.36,1.07.21,1.94l.96.34.19.64s3.01,1.02,5.03,3.57c0,0-.33,6.39-2.62,13.39,0,0,3.68,9.29,5.86,17.83l2.88,2.39s6.23.03,10.44.72c0,0,2.9,3.56,3.77,5.85,0,0,11.4,6.42,16.04,14.26,0,0,2.43,5.51.04,11.1,0,0,5.55,11.31,5.77,18.29,0,0-.56,5.38.87,7.33,0,0-1.08,8.76-5.03,13.31,0,0,1.68,11.97,1.41,15.29,0,0-2.1,11.31-6.37,15.31,0,0-3.73,17-9.82,22.49,0,0-2.85,6.71-2.91,11.18,0,0-7.77,48.2-23.44,59,0,0-6.49,14.86-9.27,18.32,0,0-2.57.88-4.61.88,0,0-19.89,36.82-24.02,51.85,0,0-.23,14.3-.84,20.74,0,0-2.3,8.81-2.71,11.04,0,0,.74,8.6,1.76,10.16,0,0-6.71,2.37-10.03,2.51,0,0-5.08-6.1-6.84-10.63,0,0,2.3-12.46,1.9-18.09,0,0-6.64-5.89-8.47-9.01,0,0,8.33-10.77,11.92-13.89,0,0,1.02-32.99,5.89-47.96,0,0,12.53-14.5,17.41-17.95,0,0,1.96-13.07,2.24-19.31,0,0-22.56,25.94-31.63,24.45,0,0-6.77,11.65-14.56,11.79,0,0-35,32.27-43.26,52.7,0,0-14.35,26.56-15.57,38.42,0,0-1.29,7.18-.75,9.14,0,0-9.01,3.59-14.02-.68,0,0-6.64-9.96-5.08-21.4,0,0,8.87-12.19,11.18-25.4,0,0,4.34-6.03,9.01-8.26,0,0,.47-5.22,8.6-10.16,0,0,6.44-20.93,8.4-30.14,0,0,9.82-17.07,34.34-24.59,0,0,2.35-11.31,7.94-21.47,0,0,12.53-27.43,19.47-36.49,0,0-9.74,3.89-15.07,4.66,0,0-3.81-6.01-4.06-9.06,0,0-4.69,3.05-12.95,1.9,0,0-3.12-4.88-2.91-11.52,0,0-6.1,2.78-13.48,2.03,0,0-2.91-9.55-2.57-13.82l-5.83,3.39-.47,3.86s-8.06,12.8-5.76,17c0,0-4.61,1.49-6.23-5.22l2.1-7.59-3.39-1.13-5.04,3.02-15.63,7.98-2.1-2.2,11.33-8.94-17.83,6.46-1.49-2.34,15.42-8.79-15.95,4.93-.79-2.89,14.04-6.73-11.85,1.44v-3.03s16.77-5.8,16.77-5.8c0,0,6.92-5.02,10.38-6.37,0,0-1.8-4.96-1.8-7.49,0,0-6.87,8.46-15.88,9.78,0,0-3.43-8.81.17-18.9,0,0-9.54,11.62-18.03,12.17,0,0-3.83-13.07,19.31-44.34,0,0-43.3,36.52-62.37,26.61,0,0,12.03-11.87,17.94-15.88,0,0-34.52,20.7-44.22,10.46,0,0,12.52-8.62,18.75-11.98,0,0-25.47,11.33-37.61,3.96,0,0,27.91-17.99,30.73-20.86,0,0-44.33,21.73-58.9,15.34,0,0,18.75-13.82,21.24-17.07,0,0-39.45,9.27-46.06,1.84,0,0,47.42-18.86,58.85-26.06,0,0-56.84,10.78-64.7-2.82,0,0,35.51-3.22,53.07-10.86,0,0-48.25,5.01-53.77-15.91,0,0,35.55,6.88,73.97-6.29,0,0-55.46,5.15-65.2-20.25,0,0,43.1,6.52,78.49,1.78,0,0-39.96-18.97-33.87-39.12,0,0,48.18,40.3,108.89,30.99,0,0-3.22-1.69-2.46-8.47,0,0,23.45,13.97,72.48,17.02,0,0,8.76,13.4,11.53,16.82Z"/>
    </clipPath>
    <linearGradient id="_Небо_2-2" data-name="Небо 2" x1="284.83" y1="206.67" x2="319.18" y2="206.67" gradientTransform="matrix(1, 0, 0, 1, 0, 0)" xlink:href="#_Небо_2"/>
    <linearGradient id="_Небо_2-3" data-name="Небо 2" x1="291.34" y1="222.05" x2="303.95" y2="222.05" gradientTransform="matrix(1, 0, 0, 1, 0, 0)" xlink:href="#_Небо_2"/>
    <linearGradient id="_Небо_2-4" data-name="Небо 2" x1="308.2" y1="225.36" x2="317.94" y2="225.36" gradientTransform="matrix(1, 0, 0, 1, 0, 0)" xlink:href="#_Небо_2"/>
    <linearGradient id="_Небо_2-5" data-name="Небо 2" x1="307.06" y1="236.7" x2="315.42" y2="236.7" gradientTransform="matrix(1, 0, 0, 1, 0, 0)" xlink:href="#_Небо_2"/>
    <linearGradient id="_Небо_2-6" data-name="Небо 2" x1="307.77" y1="247.83" x2="315.93" y2="247.83" gradientTransform="matrix(1, 0, 0, 1, 0, 0)" xlink:href="#_Небо_2"/>
    <linearGradient id="_Небо_2-7" data-name="Небо 2" x1="237.53" y1="286.77" x2="302.99" y2="286.77" gradientTransform="matrix(1, 0, 0, 1, 0, 0)" xlink:href="#_Небо_2"/>
    <linearGradient id="_Небо_2-8" data-name="Небо 2" x1="304.57" y1="264.57" x2="312.57" y2="264.57" gradientTransform="matrix(1, 0, 0, 1, 0, 0)" xlink:href="#_Небо_2"/>
    <linearGradient id="_Небо_2-9" data-name="Небо 2" x1="243.42" y1="423.26" x2="291.99" y2="423.26" gradientTransform="matrix(1, 0, 0, 1, 0, 0)" xlink:href="#_Небо_2"/>
    <linearGradient id="_Небо_2-10" data-name="Небо 2" x1="274.27" y1="302.76" x2="284.65" y2="302.76" gradientTransform="matrix(1, 0, 0, 1, 0, 0)" xlink:href="#_Небо_2"/>
    <linearGradient id="_Небо_2-11" data-name="Небо 2" x1="153.72" y1="432.08" x2="227.52" y2="432.08" gradientTransform="matrix(1, 0, 0, 1, 0, 0)" xlink:href="#_Небо_2"/>
    <linearGradient id="_Небо_2-12" data-name="Небо 2" x1="176.09" y1="232.26" x2="264" y2="232.26" gradientTransform="matrix(1, 0, 0, 1, 0, 0)" xlink:href="#_Небо_2"/>
    <linearGradient id="_Небо_2-13" data-name="Небо 2" x1="207.55" y1="295.95" x2="236.91" y2="295.95" gradientTransform="matrix(1, 0, 0, 1, 0, 0)" xlink:href="#_Небо_2"/>
    <linearGradient id="_Небо_2-14" data-name="Небо 2" x1="220.88" y1="304.59" x2="252.56" y2="304.59" gradientTransform="matrix(1, 0, 0, 1, 0, 0)" xlink:href="#_Небо_2"/>
    <linearGradient id="_Небо_2-15" data-name="Небо 2" x1="239.48" y1="312.09" x2="264.2" y2="312.09" gradientTransform="matrix(1, 0, 0, 1, 0, 0)" xlink:href="#_Небо_2"/>
    <linearGradient id="_Небо_2-16" data-name="Небо 2" x1="165.7" y1="263.72" x2="195.46" y2="263.72" gradientTransform="matrix(1, 0, 0, 1, 0, 0)" xlink:href="#_Небо_2"/>
    <linearGradient id="_Небо_2-17" data-name="Небо 2" x1="147.89" y1="253.85" x2="186.44" y2="253.85" gradientTransform="matrix(1, 0, 0, 1, 0, 0)" xlink:href="#_Небо_2"/>
    <linearGradient id="_Небо_2-18" data-name="Небо 2" x1="105.4" y1="244.6" x2="163.85" y2="244.6" gradientTransform="matrix(1, 0, 0, 1, 0, 0)" xlink:href="#_Небо_2"/>
    <linearGradient id="_Небо_2-19" data-name="Небо 2" x1="79.88" y1="237.7" x2="148.51" y2="237.7" gradientTransform="matrix(1, 0, 0, 1, 0, 0)" xlink:href="#_Небо_2"/>
    <linearGradient id="_Небо_2-20" data-name="Небо 2" x1="57.75" y1="229.87" x2="130" y2="229.87" gradientTransform="matrix(1, 0, 0, 1, 0, 0)" xlink:href="#_Небо_2"/>
    <linearGradient id="_Небо_2-21" data-name="Небо 2" x1="29.45" y1="220.81" x2="121.36" y2="220.81" gradientTransform="matrix(1, 0, 0, 1, 0, 0)" xlink:href="#_Небо_2"/>
    <linearGradient id="_Небо_2-22" data-name="Небо 2" x1="1.54" y1="208.74" x2="115.27" y2="208.74" gradientTransform="matrix(1, 0, 0, 1, 0, 0)" xlink:href="#_Небо_2"/>
    <linearGradient id="_Небо_2-23" data-name="Небо 2" x1="1.62" y1="190.12" x2="105.48" y2="190.12" gradientTransform="matrix(1, 0, 0, 1, 0, 0)" xlink:href="#_Небо_2"/>
    <linearGradient id="_Небо_2-24" data-name="Небо 2" x1="0" y1="169.92" x2="92.91" y2="169.92" gradientTransform="matrix(1, 0, 0, 1, 0, 0)" xlink:href="#_Небо_2"/>
    <linearGradient id="_Небо_2-25" data-name="Небо 2" x1="8.94" y1="145.82" x2="102.09" y2="145.82" gradientTransform="matrix(1, 0, 0, 1, 0, 0)" xlink:href="#_Небо_2"/>
    <linearGradient id="_Небо_2-26" data-name="Небо 2" x1="50.27" y1="115.22" x2="122.83" y2="115.22" gradientTransform="matrix(1, 0, 0, 1, 0, 0)" xlink:href="#_Небо_2"/>
    <linearGradient id="linear-gradient" x1="27.71" y1="49.31" x2="121.82" y2="49.31" gradientUnits="userSpaceOnUse">
      <stop offset="0" stop-color="#f8281e"/>
      <stop offset=".04" stop-color="#f7281f"/>
      <stop offset=".33" stop-color="#f62720"/>
      <stop offset=".41" stop-color="#e82227"/>
      <stop offset=".56" stop-color="#c6153a"/>
      <stop offset=".57" stop-color="#c4153c"/>
      <stop offset=".87" stop-color="#bf3000"/>
      <stop offset=".99" stop-color="#9e001c"/>
    </linearGradient>
    <linearGradient id="linear-gradient-2" x1="126.26" y1="48.88" x2="135.84" y2="48.88" xlink:href="#linear-gradient"/>
    <linearGradient id="linear-gradient-3" x1="143.74" y1="48.88" x2="279.37" y2="48.88" gradientUnits="userSpaceOnUse">
      <stop offset="0" stop-color="#f8281e"/>
      <stop offset=".04" stop-color="#f7281f"/>
      <stop offset=".33" stop-color="#f62720"/>
      <stop offset=".41" stop-color="#e82227"/>
      <stop offset=".56" stop-color="#c6153a"/>
      <stop offset=".57" stop-color="#c4153c"/>
      <stop offset=".87" stop-color="#bf3000"/>
      <stop offset=".99" stop-color="#bf001c"/>
    </linearGradient>
    <linearGradient id="linear-gradient-4" x1="287.3" y1="48.88" x2="297.45" y2="48.88" xlink:href="#linear-gradient"/>
    <linearGradient id="linear-gradient-5" x1="304.25" y1="49.1" x2="419.16" y2="49.1" xlink:href="#linear-gradient"/>
  </defs>
  <g>
    <circle class="cls-32" cx="201.36" cy="301.21" r="113.96" transform="translate(-138.06 427.98) rotate(-76.72)"/>
    <path class="cls-29" d="m247.96,154.13s9.55-4.34,15.04-17.07c0,0,11.24-5.42,18.42-6.98,0,0,1.39,1.19,2.17,2.11,0,0,10.07.17,11.38,2.08l4.16,2.67h6.68s1.56,2.18,1.11,4.45l2.2.27s.36,1.07.21,1.94l.96.34.19.64s3.01,1.02,5.03,3.57c0,0-.33,6.39-2.62,13.39,0,0,3.68,9.29,5.86,17.83l2.88,2.39s6.23.03,10.44.72c0,0,2.9,3.56,3.77,5.85,0,0,11.4,6.42,16.04,14.26,0,0,2.43,5.51.04,11.1,0,0,5.55,11.31,5.77,18.29,0,0-.56,5.38.87,7.33,0,0-1.08,8.76-5.03,13.31,0,0,1.68,11.97,1.41,15.29,0,0-2.1,11.31-6.37,15.31,0,0-3.73,17-9.82,22.49,0,0-2.85,6.71-2.91,11.18,0,0-7.77,48.2-23.44,59,0,0-6.49,14.86-9.27,18.32,0,0-2.57.88-4.61.88,0,0-19.89,36.82-24.02,51.85,0,0-.23,14.3-.84,20.74,0,0-2.3,8.81-2.71,11.04,0,0,.74,8.6,1.76,10.16,0,0-6.71,2.37-10.03,2.51,0,0-5.08-6.1-6.84-10.63,0,0,2.3-12.46,1.9-18.09,0,0-6.64-5.89-8.47-9.01,0,0,8.33-10.77,11.92-13.89,0,0,1.02-32.99,5.89-47.96,0,0,12.53-14.5,17.41-17.95,0,0,1.96-13.07,2.24-19.31,0,0-22.56,25.94-31.63,24.45,0,0-6.77,11.65-14.56,11.79,0,0-35,32.27-43.26,52.7,0,0-14.35,26.56-15.57,38.42,0,0-1.29,7.18-.75,9.14,0,0-9.01,3.59-14.02-.68,0,0-6.64-9.96-5.08-21.4,0,0,8.87-12.19,11.18-25.4,0,0,4.34-6.03,9.01-8.26,0,0,.47-5.22,8.6-10.16,0,0,6.44-20.93,8.4-30.14,0,0,9.82-17.07,34.34-24.59,0,0,2.35-11.31,7.94-21.47,0,0,12.53-27.43,19.47-36.49,0,0-9.74,3.89-15.07,4.66,0,0-3.81-6.01-4.06-9.06,0,0-4.69,3.05-12.95,1.9,0,0-3.12-4.88-2.91-11.52,0,0-6.1,2.78-13.48,2.03,0,0-2.91-9.55-2.57-13.82l-5.83,3.39-.47,3.86s-8.06,12.8-5.76,17c0,0-4.61,1.49-6.23-5.22l2.1-7.59-3.39-1.13-5.04,3.02-15.63,7.98-2.1-2.2,11.33-8.94-17.83,6.46-1.49-2.34,15.42-8.79-15.95,4.93-.79-2.89,14.04-6.73-11.85,1.44v-3.03s16.77-5.8,16.77-5.8c0,0,6.92-5.02,10.38-6.37,0,0-1.8-4.96-1.8-7.49,0,0-6.87,8.46-15.88,9.78,0,0-3.43-8.81.17-18.9,0,0-9.54,11.62-18.03,12.17,0,0-3.83-13.07,19.31-44.34,0,0-43.3,36.52-62.37,26.61,0,0,12.03-11.87,17.94-15.88,0,0-34.52,20.7-44.22,10.46,0,0,12.52-8.62,18.75-11.98,0,0-25.47,11.33-37.61,3.96,0,0,27.91-17.99,30.73-20.86,0,0-44.33,21.73-58.9,15.34,0,0,18.75-13.82,21.24-17.07,0,0-39.45,9.27-46.06,1.84,0,0,47.42-18.86,58.85-26.06,0,0-56.84,10.78-64.7-2.82,0,0,35.93-3.52,53.48-11.16,0,0-48.66,5.31-54.19-15.61,0,0,35.55,6.88,73.97-6.29,0,0-55.46,5.15-65.2-20.25,0,0,43.1,6.52,78.49,1.78,0,0-39.96-18.97-33.87-39.12,0,0,48.18,40.3,108.89,30.99,0,0-3.22-1.69-2.46-8.47,0,0,23.45,13.97,72.48,17.02,0,0,8.76,13.4,11.53,16.82Z"/>
    <g class="cls-1">
      <path class="cls-28" d="m272.33,490.42s-6.86-2.43-9.25-7.51c0,0,8.87-10.75,8.25-36.11,0,0,10.02-31.6,27.28-47.4l-18.54,57.67-7.22,31.89-.52,1.47"/>
      <path class="cls-28" d="m308.05,395.47l-9.43-.35s5.89-8.11,10.55-14.72c1.02-1.45,2.55-2.08,3.3-3.37l-4.42,18.44Z"/>
      <path class="cls-28" d="m312.46,375.87s12.17-30.2,14.78-44.57c0,0,.41,5.25.17,10.47,0,0,7.66-21.96,9.73-28.57l1.15,19.69-11.34,34.58-9.47,11.06-4.41-.05-.62-2.61Z"/>
      <path class="cls-28" d="m350.4,284.6s-4.87,1.14-6.78,1.06c0,0,.13,13.77-2.29,18.81l9.28-13.09-.21-6.78Z"/>
      <path class="cls-28" d="m357.26,267.9l-1.99.08s-4.36,11.48-11.36,13.26c0,0,5.55-6.4,6.78-13.3l-.76-12.71-3.73,12.16s-3.69,9.11-13.05,11.48c0,0,8.26-6.82,9.19-12.33,0,0,3.18-16.99,9.75-28.51,0,0,.8-3.81.51-6.65,0,0-8.47-.59-15.08,4.91,0,0-8.9-.3-15.17-5.3,0,0,14.66.25,17.88-2.2,0,0,4.07-1.69,4.7-7.88,0,0-8.69,2.97-14.96,3.6,0,0-12.8-3.31-17.24-9.53,0,0,18.85,8.98,32.96-1.82,0,0,1.36,3.22,6.52.55l7.58,5.34,2.8,15.93.04,11.82-5.38,21.1Z"/>
      <path class="cls-28" d="m354.3,199.39s-2.71,8.56-9.07,7.29c0,0-7.03,2.25-16.65-2.37,0,0,2.12,4.49,8.01,5.76,0,0-16.35,3.77-15.46-3.69,0,0-14.32-7.5-19.07-12.5,0,0,13.81,7.03,22.16,9.02,0,0-19.91-11.48-22.41-14.45,0,0-22.54,4.32-31.01,6.95,0,0,4.45-5.97,8.05-8.69,0,0-7.37,1.1-11.31,2.88,0,0,5.17-6.86,13.73-10.76,0,0,10.04,1.02,16.86,3.98,0,0-4.96-4.53-7.2-5.04,0,0-.64-13.09.09-16.99,0,0,5.76,16.44,11.27,23.69,0,0,.84-1.55.58-2.83-4.09-4.64,32.3,13.5,38.92,21.11,0,0-19.74-24.11-43.26-37.62,0,0,3.08.31,4.87.91l3.09-.41s2.79-7.13,6.62-11.33c0,0-1.57,4.77-1.79,9.25,0,0,5.29,8.62,7.21,13.94l-.22-14.56,36.01,36.48"/>
      <path class="cls-28" d="m317.01,147.86l-1.39.35s-10.3,4.69-17.98,10.65c0,0-3.71-1.39-5.47-3.02,0,0-1.56,2.58-2.52,3.41,0,0-5.75.67-9.35-2.84,0,0,4.71-.39,7.51-2.24,0,0-1.32-1.54-1.48-4.08,0,0,3.11,1.34,6.25.97,0,0-.12-.74-.12-1.53,0,0,3.14.44,5.89.25,0,0-1.57-2.69-1.65-5.19,0,0-3.36-2.01-6.45-1.41,0,0,4.88-1.79,6.64-3.69,0,0,.73-1.81,2.31-2.63l6.6-.95.03,1.06s-1.54,3.42-4.23,5.05c0,0,2.81-.45,5.38-.69l2-.47.26.85s-3.4.8-5.33,3.66c0,0,.42,1.28.9,1.91,0,0,1.91-2.4,3.8-3.05,0,0-.54,1.18-.29,2,0,0,1.37-.83,3.33-1.28l2.88.03,2.49,2.88Z"/>
      <path class="cls-28" d="m294.88,133.18l-.93,2.19s-3.62-.52-6.59,4.49c0,0-3.12-.98-6.16-.89,0,0,3.47-4.95,7.29-6.88l6.4,1.08Z"/>
      <path class="cls-28" d="m281.85,129.19s-1.87,3.62-10.85,10.22c0,0-4.56,6.23-5.03,12.88,0,0-9.53,3.81-16.23,4.91l-1.74-3.35,6.74-12.41,4.41-8.13,13.64-2.84,9.05-1.27Z"/>
      <path class="cls-28" d="m278.85,162.51s-4.53-2.03-6.21-4.15c0,0-4.66,4.5-6.59,6.59,0,0,3.06,6.59,1.06,11.61,0,0,5.4-4.94,6.4-8.19,0,0,.19-1.44-.65-2.47,0,0,4.04-1.84,5.99-3.39Z"/>
      <path class="cls-28" d="m263.41,176.9s-22.98-33.84-26.64-39.99l-60.48-19.54-13.82-.16,1.59,3.02s.37,8.9,17.74,11.65l-8.37,2.65s8.69,4.13,19.81,2.33l-9.59,3.5s8.47,3.55,22.88-.79l-8.95,4.82s7.47,4.45,21.03.95l-8.95,4.29s7.31,4.4,21.24,2.54l-9.96,3.44s2.86,4.77,16.63,5.67l-9.27,2.12s2.38,4.87,14.56,6.41c0,0,13.72.42,20.55,7.1Z"/>
      <path class="cls-28" d="m241.47,185.36s-9.86,5.66-13.75,7.65c0,0,4.41,2.94,9.49,1.91,5.08-1.03,7.36-4.63,7.36-4.63,0,0-2.13-.15-5.44-.81l2.35-4.12Z"/>
      <path class="cls-28" d="m231.3,176.33l-12.54,7.34s2.6,2.34,7.72,1.36c5.12-.98,8.02-4.56,8.02-4.56l-4.9-.26,1.69-3.88Z"/>
      <path class="cls-28" d="m225.4,172.88s-7.53,6.59-17.07,3.24l13.71-8.47-1.47,4.12,4.83,1.12Z"/>
      <path class="cls-28" d="m212.04,159.64l-17.24,8s6,3.65,12.48,2.24c6.47-1.41,9.42-4.59,9.42-4.59l-7.24-.53,2.59-5.12Z"/>
      <path class="cls-28" d="m201.15,157.23s-10.53,9.83-23.01,1.71l16.89-6.24.35,3.47,5.77,1.06Z"/>
      <path class="cls-28" d="m189.44,147.99s-12.53,8.65-24.07-.94l14.95-4.24,1.3,3.71,7.83,1.47Z"/>
      <path class="cls-28" d="m165.7,141.07l-22.66-1.54s5.81,6.03,16.84,6.99l-.22-3.53,6.03-1.91Z"/>
      <path class="cls-28" d="m172.17,158.36s-12.14,2.57-18.24-3.09l12.43-2.13s.22,3.46,5.81,5.22Z"/>
      <path class="cls-28" d="m175.16,163.86s-11.06,1.51-14.69,1.32c0,0,6.83,5.27,17.94,4.24,0,0-3.06-2.02-3.25-5.56Z"/>
      <path class="cls-28" d="m189.94,170.83s-8.24,3.58-13.89,4.85c0,0,8.85,3.2,19.02-.28,0,0-5.18-2.17-5.13-4.57Z"/>
      <path class="cls-28" d="m199.73,177.94s-7.58,3.72-12.43,5.08c0,0,6.73,3.91,17.89-1.27,0,0-4.33-.71-5.46-3.81Z"/>
      <path class="cls-28" d="m213.67,188.86l-12.62,7.2s8.29.66,15.63-2.26c0,0-3.01-1.08-3.01-4.94Z"/>
      <path class="cls-28" d="m224.45,200.16l-11.82,6.4s7.11,1.27,15.35-1.79c0,0-3.86-1.04-3.53-4.61Z"/>
      <path class="cls-28" d="m138.4,144.18s-7.29.42-10.24-4.1l10.18.72.06,3.37Z"/>
      <path class="cls-28" d="m196.74,210.71s-7.48,1.75-10.25,2.17c0,0,2.93-4.27,5.22-6.13,0,0,2.31,3.39,5.03,3.96Z"/>
      <path class="cls-28" d="m166.43,128.56s-43.33,26.94-108.8-30.77l53.7,9.33,55.1,21.45"/>
      <path class="cls-28" d="m183.12,203.84s-10.12,2.03-13.37,2.27c0,0,3.13-4.77,7.04-7.03,0,0,2.29,3.98,6.33,4.76Z"/>
      <path class="cls-28" d="m171.49,193.23s-10.96,2.43-16.69,2.67c0,0,5.18-4.72,8.86-7.13,0,0,2.53,3.8,7.83,4.46Z"/>
      <path class="cls-28" d="m159.81,183.08s-9.88,2.54-14.66,1.9c0,0,6.69-5.12,9.7-6.69,0,0,1.34,3.73,4.96,4.79Z"/>
      <path class="cls-28" d="m150.69,175.24s-7.95,2.23-15.24,2.78c0,0,7.87-6.85,10.28-7.99,0,0,1.29,4.35,4.96,5.22Z"/>
      <path class="cls-28" d="m143.27,166.14s-9.92,2.33-16.07,2.03c0,0,9.04-5.84,12.96-7.05,0,0,1.07,3.88,3.12,5.02Z"/>
      <path class="cls-28" d="m136.9,151.77s-7.84,2-10.79,3.32c0,0,7.15,1.62,12.54.23,0,0-2.65-1.39-1.75-3.56Z"/>
      <path class="cls-28" d="m26.42,133.44s26.59,18.39,65.04,3.4l-65.04-3.4Z"/>
      <path class="cls-28" d="m281.58,205.19s-6.9-.35-9.76-3.07c0,0-5.28,2.99-7.02,5.49,0,0,3.84-.31,7.23.4,0,0-12.41,11.74-19.19,21.07,0,0,2.28,2.19,4.6,4.06,0,0,13.57-9.15,20.26-25.84,0,0,2.77-.25,3.89-2.11Z"/>
      <path class="cls-28" d="m261.76,194.09s-3.44,5.4-3.79,9.91c0,0-10.71,8.97-16.11,18.17,0,0,4.15-.94,6.2-.62,0,0,10.4-12.9,14.55-15.94,0,0-2.41-4.69-.85-11.52Z"/>
      <path class="cls-28" d="m246.67,233.33s2.95,2.37,5.71,3.12c0,0-5.27,12.28-8.61,17.41,0,0-3.21.22-6.83.71,0,0-23.66,15.88-29.91,21.79,0,0-2.39,6.69-3.06,13.61l1.89,10.1-7.2,10.32-1.73,2.4-2.45-.73.33-1.62s-2.34-3.85,5.3-17.74c0,0-2.79-2.23-5.24-2.68,0,0,2.29-8.26,4.74-14.39,0,0,30.35-18.47,39.17-39.95,0,0-1.67,8.82-3.46,13.45,0,0,9.14-6.01,11.35-15.81Z"/>
      <path class="cls-24" d="m284.83,201.68s6.28-4.78,12.93-1.07c6.64,3.71,12.85,11.07,21.42,13.5,0,0-6.45.42-10.61-1.55-4.16-1.97-14.26-13.63-23.74-10.88Z"/>
      <path class="cls-27" d="m291.34,207.77s5.26,3.7,6.67,5.94c0,0,1.01,14.31,5.94,22.63,0,0-6.54-5.03-7.68-13.25-1.14-8.23-1.46-9.1-1.46-9.1,0,0,.14-1.37-3.47-6.22Z"/>
      <path class="cls-23" d="m308.2,220.29s-.18,9.42,9.74,10.15l-9.74-10.15Z"/>
      <path class="cls-22" d="m307.06,232.26s-.23,8.23,8.36,8.87l-8.36-8.87Z"/>
      <path class="cls-20" d="m307.84,242.91s-1.37,7.5,8.09,9.83l-8.09-9.83Z"/>
      <path class="cls-28" d="m338.55,243.05s-9.74.37-17.83-1.19c0,0,3.02,5.62,14.12,6.76,0,0,2.97-2.42,3.7-5.58Z"/>
      <path class="cls-28" d="m330.64,254.52s-5.99.55-8.41.05c0,0,1.87,3.29,5.49,4.71,0,0,2.01-1.19,2.93-4.75Z"/>
      <path class="cls-21" d="m278.48,217.33s2.13,10.24,12.62,16.76c0,0,5.36,11.09,8.17,15.42,0,0-3.17,6.22-5.12,13.16,0,0-6.95,6.46-8.53,13.59-2.51,1.83-4.19,3.06-8.54,6.23,0,0-13.18,24.43-16.23,30.08-4.59,3.39-11.43,12.42-11.43,12.42l-11.81,21.63-.08,9.6s7.01-10.59,11.04-15.84c2.26-2.94,13-20.63,20.46-34.63,5.89-11.05,9.21-16.96,11.36-20.92,0,0,6.5-3.95,10.15-6.16,0,0,1.81-9.41,7.32-13.75,0,0,3.07-10.92,5.12-15.16,0,0-8.14-15.75-9.6-18.23,0,0-9.13-3.96-14.9-14.19Z"/>
      <path class="cls-26" d="m304.98,255.54s-3.1,11.18,7.59,18.07l-7.59-18.07Z"/>
      <path class="cls-25" d="m286.72,354.72l5.27-5.11s-1.44,14.78-3.51,25.72c0,0-12.78,13.1-17.89,19.25,0,0-5.19,26.52-7.03,51.52,0,0-1.99-.62-2.65-2.09,0,0-4.62,5.73-6.99,9.77,0,0,4.17,4.66,7.65,7.65,0,0,.61,14.37-1.94,19.84,0,0,1.48,6.54,7.62,9.46l-.82,6.19-13.8-3.27-3.89-7.98-5.32-25.36,1.33-13.39,11.71-21.01,3.89-28.42,6.39-17.59,15.69-15.49,4.3-9.68Z"/>
      <path class="cls-12" d="m284.65,292.65s-11.34,4.47-10.3,20.21l10.3-20.21Z"/>
      <path class="cls-13" d="m227.52,372.36s-19.63,15.88-24.17,23.91c0,0-4.89,19.37-8.9,27.4,0,0,2.07-1.02,5.38-1.18,0,0-10.39,7.57-14.32,15.07,0,0-6.79,2.95-9.69,7.37,0,0-2.56,15.87-10.22,24.94,0,0-2.14,12.58,3.29,19.44,0,0,5.34,3.34,10.05,3.38l-10.24,1.52-9.1-3.62-5.86-21.78,6.96-12.15,11.77-19.54,8.35-15.34,11.38-25.79,17.99-19.48,14.41-6.55,2.94,2.4Z"/>
      <path class="cls-28" d="m199.26,442.99s-11.34,9.27-15.92,19.76c-4.57,10.49-4.7,17.93-4.7,17.93,0,0-4.27-.06-5.43-5.18,0,0-6.95,11.59,7.75,15.61l10.8-11.04,2.93-17.63,4.57-19.46"/>
      <path class="cls-11" d="m264,184.2s-7.98,2.12-11.31,4.97c0,0-1.94,6.4-2.23,11.1,0,0-4.85,5.42-9.18,10.48,0,0-3.78,8.28-5.67,12.83,0,0-7.83,4.01-11.37,6.37,0,0-21.94,28.26-30.2,41.16,0,0-8.08,2.92-11.35,4.86l-6.62,4.35,19.52-6.47s25.52-35.58,32.11-41.69l11.48-7.43,5.63-12.74,9.86-11.35.71-10.13,8.6-6.33Z"/>
      <path class="cls-15" d="m210.02,286.63s3.65,7.3,6.02,9.97c0,0,13.03-3.11,20.87-10.17,0,0-8.39,9.82-11.15,11.89l-14.41,7.15-3.8-1.58.35-9.67,2.12-7.6Z"/>
      <path class="cls-16" d="m227.93,294.92s1.18,9.57,2.86,12.04c0,0,11.6-.94,21.76-11.15,0,0-6.66,9.33-10.61,12.48l-9.82,5.97-10.22-2.71-1.04-4.98,4.05-11.15,3.01-.49Z"/>
      <path class="cls-14" d="m241.11,305.58l-1.63,6.96,4.84,6.41,4.39.84,13.72-6.71,1.78-5.82s-11.94,5.03-15.94,5.77c0,0-3.31-5.87-3.5-8.64l-3.65,1.18Z"/>
      <path class="cls-10" d="m195.46,249.18s-7.48,13.72-9.71,17.12l-5.63,7.94-12.41,4.01-2.01-2.47.93-13.42,3.47-5.01s.54,9.02,2.31,12.65c0,0,8.33,1.85,23.05-20.82Z"/>
      <path class="cls-18" d="m186.44,235.23l-17.81,24.25-8.94,11.06-11.03,1.93-.77-8.1,6.71-20.51,6.09-2.7s-4.78,14.42-4.93,22.36c0,0,17.19-11.33,30.69-28.3Z"/>
      <path class="cls-17" d="m163.85,231.45l-17.89,17.81-23.67,6.32-10.18,2.16-6.71-5.71,3.55-.54s33.15-5.17,54.9-20.05"/>
      <path class="cls-19" d="m79.88,246.79l3.01-.85s36.86-4.55,65.62-25.83c0,0-12.95,10.95-22.52,16.27l-15.11,11.03-13.88,7.09-10.49.77-5.01-1.08-1.62-7.4Z"/>
      <path class="cls-5" d="m130,215.26s-18.5,14.8-28.53,18.81l-17.81,7.94-18.89,2.47-7.02-1.08,1.39-5.09,4.78-.39s34.7-1.16,66.08-22.67Z"/>
      <path class="cls-4" d="m29.45,233.45l6.25-1.16s48.19-8.48,85.66-31.38c0,0-16.42,10.87-26.52,16.04l-15.88,8.87-23.44,13.49-14.5,1.39-10.18-3.7-1.39-3.55Z"/>
      <path class="cls-8" d="m1.54,216.65l9.48.69s60.37-4.16,104.25-27.76c0,0-19.05,13.26-58.75,25.83l-27.91,12.49-21.97-3.78-5.09-7.48Z"/>
      <path class="cls-9" d="m1.62,191.43l3.16-3.32s32.54,10.56,100.7-9.48c0,0-15.96,8.25-36.55,12.8l-35.31,10.18-26.99-1.39-5.01-8.79Z"/>
      <path class="cls-7" d="m92.91,168.3s-63.53,16.81-88.67-6.71l-4.24,2.08,8.4,8.64,8.4,5.24,16.11.69,25.14-.69s15.96-1,34.85-9.25Z"/>
      <path class="cls-6" d="m9.64,132.14l3.39,3.01s26.99,24.13,89.06,15.11l-24.36,5.09-26.91,4.16-33.77-7.87-8.1-7.63.69-11.87Z"/>
      <path class="cls-3" d="m53.28,90.66l4.32,7.09s13.11,38.55,65.23,40.56c0,0-12.57,4.16-32.08-1.47l-29.84-12.95-10.64-13.26s1-6.94,1.39-8.79c.39-1.85,1.62-11.18,1.62-11.18"/>
    </g>
  </g>
  <g>
    <polyline class="cls-2" points="51.86 82.13 121.66 81.28 121.82 96.26 28.76 97.39 27.71 1.51 50.97 1.23"/>
    <polygon class="cls-30" points="135.84 97.03 135.84 .83 126.26 .74 126.26 96.94 135.84 97.03"/>
    <path class="cls-34" d="m160.86,59.92v37.85h-16.93v-55.83l16.93,17.98Zm-16.93-39.55l-.19-20.37,67.82,65.85L279.37,0v97.77h-16.93v-60.6l-39.93,39.62-11.22,11.13-11.22-11.13-56.15-56.42Z"/>
    <polygon class="cls-31" points="297.45 96.92 297.45 .94 287.3 .85 287.3 96.83 297.45 96.92"/>
    <path class="cls-35" d="m304.25.94h40.63v11.99h-40.63V.94Zm43.8.42h71.11v11.99h-54.18v83.9h-16.93V1.36Z"/>
  </g>
  <text/>
</svg>